<svg xmlns="http://www.w3.org/2000/svg" version="1.1" xmlns:xlink="http://www.w3.org/1999/xlink" width="512" height="512" x="0" y="0" viewBox="0 0 128 128" style="enable-background:new 0 0 512 512" xml:space="preserve" class=""><g><path fill="#eb4648" d="M18.75 32.09h90.5V91.6h-90.5z" opacity="1" data-original="#434953" class=""></path><path fill="#fde803" d="M22.75 36.43h82.5v50.51h-82.5z" opacity="1" data-original="#6699d1" class=""></path><path fill="#eb4648" d="M118.67 90.6v2.33c0 3.32-2.69 6-6 6H15.33c-3.31 0-6-2.68-6-6V90.6z" opacity="1" data-original="#e5e7ea" class=""></path><path fill="#ffe4a4" d="M76.17 90.6c0 2.46-2 4.46-4.47 4.46H56.3c-1.24 0-2.35-.5-3.16-1.31s-1.31-1.92-1.31-3.15z" opacity="1" data-original="#cecece" class=""></path><path fill="#6194c1" d="M101.68 54.98c1.22 0 2.41-.13 3.57-.35v-18.2H83.12c0 10.25 8.31 18.55 18.56 18.55z" opacity="1" data-original="#6194c1" class=""></path><circle cx="101.68" cy="36.43" r="16.32" fill="#fdcc58" opacity="1" data-original="#fdcc58" class=""></circle><path fill="#eb4648" d="M112.93 35.05h-22.5c-.55 0-1-.45-1-1s.45-1 1-1h22.5c.55 0 1 .45 1 1s-.45 1-1 1zM112.93 39.8h-22.5c-.55 0-1-.45-1-1s.45-1 1-1h22.5c.55 0 1 .45 1 1s-.45 1-1 1z" opacity="1" data-original="#434953" class=""></path><g fill="#5ac0a6"><path d="M102.39 41.55c-.01-.01-.03-.02-.04-.03l-.12-.09c-.04-.03-.08-.05-.13-.08a.076.076 0 0 0-.04-.02c-.03-.01-.06-.01-.09-.02-.05-.01-.09-.03-.14-.04s-.1-.01-.15-.01-.09 0-.14.01-.1.02-.15.04c-.03.01-.06.01-.09.02-.01.01-.03.02-.04.02-.04.02-.08.05-.13.08l-.12.09c-.01.01-.03.02-.04.03l-3.18 3.18a.996.996 0 1 0 1.41 1.41l1.47-1.47v4.75c0 .55.45 1 1 1s1-.45 1-1v-4.75l1.47 1.47a.996.996 0 1 0 1.41-1.41zM100.97 31.31c.01.01.02.01.03.02.09.08.18.15.29.2.12.05.25.08.38.08s.26-.03.38-.08c.11-.05.21-.12.29-.2.01-.01.02-.01.03-.02l3.18-3.18a.996.996 0 1 0-1.41-1.41l-1.47 1.47v-4.75c0-.55-.45-1-1-1s-1 .45-1 1v4.75l-1.47-1.47a.996.996 0 1 0-1.41 1.41z" fill="#434953" opacity="1" data-original="#5ac0a6" class=""></path></g></g></svg>