<svg xmlns="http://www.w3.org/2000/svg" version="1.1" xmlns:xlink="http://www.w3.org/1999/xlink" width="512" height="512" x="0" y="0" viewBox="0 0 511.998 511.998" style="enable-background:new 0 0 512 512" xml:space="preserve" class=""><g transform="matrix(0.8000000000000009,0,0,0.8000000000000009,51.19979858398409,51.19980087280251)"><path d="M451.703 410.844H34.515c-14.876 0-26.936-12.06-26.936-26.936V81.628c0-14.876 12.06-26.936 26.936-26.936h417.188c14.876 0 26.936 12.06 26.936 26.936v302.28c0 14.876-12.06 26.936-26.936 26.936z" style="" fill="#eb4648" data-original="#57555c" class="" opacity="1"></path><path d="M195.54 408.539h120.92v52.27H195.54z" style="" fill="#fde803" data-original="#3c3b41" class="" opacity="1"></path><path d="M195.54 408.539h120.92v16.186H195.54z" style="" fill="#fde803" data-original="#2a2a2c" class="" opacity="1"></path><path d="M478.639 333.163H7.579V78.51c0-13.154 10.664-23.818 23.818-23.818h423.424c13.154 0 23.818 10.664 23.818 23.818v254.653z" style="" fill="#fde803" data-original="#cae8f8" class="" opacity="1"></path><path d="M377.507 486.581H134.493c0-15.508 12.572-28.08 28.08-28.08h186.855c15.507.001 28.079 12.572 28.079 28.08z" style="" fill="#eb4648" data-original="#57555c" class="" opacity="1"></path><path d="M358.693 199.583c-56.288 0-101.919 45.631-101.919 101.919a101.82 101.82 0 0 0 5.022 31.662H455.59a101.811 101.811 0 0 0 5.022-31.662c0-56.288-45.63-101.919-101.919-101.919z" style="" fill="#fde803" data-original="#84caff" class="" opacity="1"></path><path d="M433.67 333.163H261.797c-.806-2.468 25.178 70.257 96.897 70.257 45.234 0 83.578-29.471 96.897-70.257H433.67z" style="" fill="#fde803" data-original="#2a2a2c" class="" opacity="1"></path><path d="M233.662 296.163H56.589c-6.52 0-11.805-5.285-11.805-11.805V107.285c0-6.52 5.285-11.805 11.805-11.805h177.073c6.52 0 11.805 5.285 11.805 11.805v177.073c0 6.519-5.286 11.805-11.805 11.805z" style="" fill="#ffc473" data-original="#ffc473" class=""></path><path d="M454.821 54.692H263.57v99.48c0 15.52 12.582 28.101 28.101 28.101h186.968V78.51c0-13.154-10.664-23.818-23.818-23.818z" style="" fill="#fde803" data-original="#84caff" class="" opacity="1"></path><path d="M494.194 156.937H300.907c-5.648 0-10.227-4.579-10.227-10.227V35.643c0-5.648 4.579-10.227 10.227-10.227h193.288c5.648 0 10.227 4.579 10.227 10.227V146.71c-.001 5.648-4.58 10.227-10.228 10.227zM71.53 209.869h30.343v86.29H71.53z" style="" fill="#00a6ff" data-original="#00a6ff" class=""></path><path d="M128.01 169.199h30.343v126.97H128.01z" style="" fill="#eb4648" data-original="#ff73af" class="" opacity="1"></path><path d="M187.1 136.059h30.343v160.1H187.1z" style="" fill="#53db7d" data-original="#53db7d" class=""></path><path d="m500.936 27.967-43.775 49.015c-4.336 4.855-10.563 6.848-16.495 5.28-5.267-1.392-10.806.016-15.046 3.825l-31.866 28.627c-4.389 3.943-10.16 5.305-15.57 3.677l-26.809-8.07c-6.333-1.906-13.076.3-17.541 5.74l-33.528 40.846c.2.012.398.03.601.03h193.288c5.648 0 10.227-4.579 10.227-10.227V35.643a10.193 10.193 0 0 0-3.486-7.676z" style="" fill="#4b5be5" data-original="#4b5be5" class=""></path><circle cx="358.69" cy="292.729" r="85.03" style="" fill="#eb4648" data-original="#ff73af" class="" opacity="1"></circle><path d="M441.892 275.142c-8.102-38.522-42.268-67.446-83.199-67.446v85.029l83.199-17.583z" style="" fill="#53db7d" data-original="#53db7d" class=""></path><path d="m358.693 292.725-7.328 84.694c2.418.207 4.858.335 7.328.335 15.114 0 29.296-3.961 41.595-10.875l-41.595-74.154z" style="" fill="#ffc473" data-original="#ffc473" class=""></path><path d="M56.589 87.9c-10.689 0-19.384 8.696-19.384 19.385v177.073c0 10.689 8.695 19.384 19.384 19.384h177.075c10.689 0 19.384-8.695 19.384-19.384V107.285c0-10.689-8.695-19.385-19.384-19.385H56.589zm22.515 200.684v-71.133h15.185v71.133H79.104zm56.483 0V176.776h15.185v111.808h-15.185zm59.094 0V143.64h15.185v144.944h-15.185zm43.206-181.299v177.073a4.231 4.231 0 0 1-4.226 4.226h-8.638V136.061a7.579 7.579 0 0 0-7.579-7.579h-30.343a7.579 7.579 0 0 0-7.579 7.579v152.523h-13.594V169.197a7.579 7.579 0 0 0-7.579-7.579h-30.343a7.579 7.579 0 0 0-7.579 7.579v119.387h-10.983v-78.712a7.579 7.579 0 0 0-7.579-7.579h-30.34a7.579 7.579 0 0 0-7.579 7.579v78.712h-7.357a4.231 4.231 0 0 1-4.226-4.226V107.285a4.231 4.231 0 0 1 4.226-4.227h177.073a4.23 4.23 0 0 1 4.225 4.227z" fill="#000000" opacity="1" data-original="#000000" class=""></path><path d="M506.01 22.287c-2.586-2.586-7.695-4.45-11.816-4.45H300.906c-9.818 0-17.806 7.988-17.806 17.806V146.71c0 9.281 7.14 16.917 16.214 17.725.32.041.64.081.962.081h170.783v161.069h-25.786a92.139 92.139 0 0 0 6.029-32.859 92.63 92.63 0 0 0-1.967-19.018c-.008-.045-.012-.089-.021-.134-.012-.058-.032-.113-.045-.171-8.912-41.821-46.136-73.286-90.575-73.286-51.064 0-92.609 41.544-92.609 92.609 0 47.603 36.105 86.926 82.367 92.04 3.403.373 6.817.563 10.242.569 16.213 0 31.464-4.193 44.733-11.545.194-.088.929-.501 1.098-.615a93.31 93.31 0 0 0 33.331-32.432h33.204v43.873c0 10.283-8.366 18.648-18.648 18.648H33.806c-10.283 0-18.648-8.366-18.648-18.648v-43.873h230.308a7.579 7.579 0 1 0 0-15.158H15.158V80.919c0-10.283 8.366-18.648 18.648-18.648h220.158a7.579 7.579 0 1 0 0-15.158H30.77C13.803 47.113 0 60.917 0 77.884V384.616c0 18.641 15.166 33.806 33.806 33.806h154.152v32.501h-25.387c-19.662 0-35.659 15.997-35.659 35.659a7.579 7.579 0 0 0 7.579 7.579h243.015a7.579 7.579 0 0 0 7.579-7.579c0-19.662-15.997-35.659-35.659-35.659h-25.387v-32.501h128.37c18.641 0 33.806-15.166 33.806-33.806V164.515h7.977c9.818 0 17.806-7.988 17.806-17.806V35.643c.002-4.969-3.387-10.755-5.988-13.356zm-73.471 247.086-66.266 14.005v-67.727c31.226 3.047 57.071 24.711 66.266 53.722zm-68.416 48.524 25.659 45.744a76.95 76.95 0 0 1-30.181 6.512l4.522-52.256zm-82.88-25.171c0-40.149 30.709-73.253 69.872-77.075v76.753l-6.614 76.447c-35.949-6.689-63.258-38.268-63.258-76.125zm121.746 63.477-32.643-58.194 65.319-13.805c.308 2.8.479 5.64.479 8.521 0 26.243-13.131 49.463-33.155 63.478zm-34.512 122.8H143.523c3.02-7.564 10.42-12.922 19.049-12.922H349.428c8.629 0 16.029 5.358 19.049 12.922zm-59.594-28.08H203.117v-32.501h105.766v32.501zm-10.624-415.28a2.651 2.651 0 0 1 2.648-2.648h185.378L451.51 71.933c-2.423 2.713-5.754 3.835-8.905 3.001-7.701-2.037-15.941.026-22.047 5.514l-31.867 28.627c-2.417 2.171-5.452 2.919-8.32 2.057l-26.811-8.07c-9.329-2.809-19.132.331-25.583 8.189l-29.63 36.097a2.64 2.64 0 0 1-.087-.639V35.643h-.001zm195.935 113.714H316.307l23.384-28.488c2.536-3.088 6.085-4.321 9.498-3.292l26.809 8.07c7.941 2.389 16.469.411 22.82-5.295l31.868-28.627c2.328-2.092 5.258-2.872 8.044-2.136 8.651 2.288 17.879-.611 24.084-7.558l34.027-38.101v102.78a2.65 2.65 0 0 1-2.647 2.647z" fill="#000000" opacity="1" data-original="#000000" class=""></path></g></svg>