<svg xmlns="http://www.w3.org/2000/svg" version="1.1" xmlns:xlink="http://www.w3.org/1999/xlink" width="512" height="512" x="0" y="0" viewBox="0 0 50 50" style="enable-background:new 0 0 512 512" xml:space="preserve" class=""><g transform="matrix(0.900000000000001,0,0,0.900000000000001,2.4999875426292633,2.49996942877765)"><path fill="#eb4648" d="m1.417 28.533-.004.003 3.728 2.162 13.62-7.868.004.002v-.004l.263-.152-.001-.001h.001l-.049-18.358-1.189-.691-.004-1.198-.269-.157-.288.167-.001-.328-.269-.157-.288.167-.001-.328-.269-.156-.288.166-.001-.328-.269-.157-.288.167-.001-.328-.27-.157-8.819 5.092v-.077l-1.619.935v.077l-.388.224-.001-.736-1.62.935.001.736-1.133.655.049 15.181-.347.766z" opacity="1" data-original="#e4e8f4" class=""></path><path fill="#eb4648" d="m47.595 17.099-24.07-13.9c-.29-.16-.54-.18-.73-.07l-.45.26c-.18.11-.29.33-.29.65l-.05 17.51c0 .64.44 1.42 1 1.74l1.15.66c-.16.14-.27.36-.27.56l-1.73-1.01c-.09-.05-1.63.78-1.78.87l-15.73 9.28a.45.45 0 0 0-.17.19c-.05.07-.08.16-.07.24 0 .08.02.13.06.16l25.39 14.74c.05.03.1.03.17-.01l11.03-6.09-.01 3.96c0 .41.26.81.8 1.12 1.06.61 2.78.61 3.83 0 .53-.3.79-.7.79-1.1v-.55c.89-.53 1.6-1.78 1.6-2.8 0-.52-.18-.88-.48-1.05v-.01l-.36-.2c-.2-.12-.47-.14-.76-.06-.02-.38-.28-.76-.78-1.05-.26-.15-.56-.26-.87-.33l2.35-1.3c.29-.17.53-.58.53-.92 0-.18-.07-.29-.17-.34l-3.27-1.9c.17-.15.3-.39.3-.6v-.02l2.53 1.46c.32.19.61.17.8 0-.02.03-.05.05-.08.07l.45-.26c.19-.11.3-.33.3-.65l.05-17.5c0-.65-.45-1.43-1.01-1.75zm-6.22 16.81c-.18.1-.32.33-.36.55l-13.95-8.1c.17-.11.31-.32.35-.52l13.97 8.06c0 .01 0 .01-.01.01zm5.1 9.05c.23-.11.43-.16.61-.13.15.15.25.36.25.68.01.64-.36 1.39-.86 1.87z" opacity="1" data-original="#e4e8f4" class=""></path><path fill="#5b5e71" d="M18.615 44.229v.92c0 .16-.1.32-.3.44l-4.72 2.72c-.4.23-1.06.23-1.47-.01l-10.42-6.05c-.2-.12-.3-.27-.3-.43v-.9c-.01-.16.08-.32.29-.44l4.71-2.72c.41-.24 1.08-.24 1.48 0l10.42 6.05c.21.12.31.26.31.42z" opacity="1" data-original="#5b5e71" class=""></path><path fill="#b2b2b2" d="m5.141 30.697 13.887-8.022-3.722-2.161-13.893 8.022z" opacity="1" data-original="#b2b2b2"></path><path fill="#ffb309" d="m18.765 22.832-3.724-2.164-.052-18.356 3.727 2.161z" opacity="1" data-original="#474b59" class=""></path><path fill="#5b5e71" d="m18.716 4.473.263-.156-3.722-2.162-.269.156zM14.626 20.596l-.269-.156.139-.08.269.156zM13.641 21.165l-.269-.156.185-.107.269.156z" opacity="1" data-original="#5b5e71" class=""></path><path fill="#5b5e71" d="m13.968 20.443-.269-.157.658.154.269.156z" opacity="1" data-original="#5b5e71" class=""></path><path fill="#ffb309" d="m14.765 20.516-.269-.156-.005-1.827.269.156z" opacity="1" data-original="#474b59" class=""></path><path fill="#5b5e71" d="m13.073 21.493-.27-.156.25-.554.27.156zM13.59 20.35l-.27-.157.809-1.785.269.156z" opacity="1" data-original="#5b5e71" class=""></path><path fill="#ffb309" d="m14.665 17.975-.269-.157.092-.207.269.156z" opacity="1" data-original="#474b59" class=""></path><path fill="#5b5e71" d="m11.395 22.462-.269-.157 1.677-.968.27.156z" opacity="1" data-original="#5b5e71" class=""></path><path fill="#ffb309" d="m11.368 22.455-.269-.157.027.007.269.157z" opacity="1" data-original="#474b59" class=""></path><path fill="#5b5e71" d="m12.441 20.081-.269-.156 1.148.268.27.157z" opacity="1" data-original="#5b5e71" class=""></path><path fill="#ffb309" d="m14.757 17.767-.269-.156-.005-1.743.269.156z" opacity="1" data-original="#474b59" class=""></path><path fill="#5b5e71" d="m13.516 17.706-.269-.156 1.149.268.269.157zM10.992 22.363l-.27-.156.806-1.784.269.156zM14.589 15.333l-.269-.157.161.036.269.157zM12.062 19.994l-.269-.156.808-1.786.269.156z" opacity="1" data-original="#5b5e71" class=""></path><path fill="#ffb309" d="m14.75 15.369-.269-.157-.001-.395.269.157z" opacity="1" data-original="#474b59" class=""></path><path fill="#5b5e71" d="m13.135 17.618-.269-.157.806-1.784.269.156zM14.21 15.246l-.269-.157.536-1.191.27.157zM9.066 23.806l-.269-.156 1.524-.88.269.156zM9.843 22.095l-.269-.157 1.148.269.27.156z" opacity="1" data-original="#5b5e71" class=""></path><path fill="#ffb309" d="m14.747 14.055-.27-.157-.001-.658.269.156z" opacity="1" data-original="#474b59" class=""></path><path fill="#5b5e71" d="m10.913 19.72-.269-.157 1.149.275.269.156zM8.498 24.134l-.269-.156.696-1.536.27.156z" opacity="1" data-original="#5b5e71" class=""></path><path fill="#5b5e71" d="m8.161 24.329-.269-.157.337-.194.269.156zM11.986 17.349l-.269-.156 1.149.268.269.157zM9.459 22.008l-.269-.157.806-1.784.269.156zM13.059 14.973l-.269-.157 1.151.273.269.157zM10.534 19.636l-.269-.157.809-1.786.269.157zM14.137 12.599l-.269-.156.606.144.269.156zM11.61 17.258l-.269-.157.805-1.787.27.157zM6.781 25.125l-.269-.156.58-.335.27.156z" opacity="1" data-original="#5b5e71" class=""></path><path fill="#ffb309" d="m14.743 12.743-.269-.156-.004-1.482.269.156z" opacity="1" data-original="#474b59" class=""></path><path fill="#5b5e71" d="m7.238 24.113-.27-.157.924.216.269.157zM12.68 14.883l-.269-.157.808-1.785.269.156zM8.31 21.739l-.269-.156 1.149.268.269.157zM6.213 25.453l-.269-.156.379-.839.269.157zM13.755 12.508l-.269-.157.806-1.784.269.157zM9.386 19.361l-.269-.156 1.148.274.269.157zM6.859 24.023l-.269-.157.808-1.786.269.157zM10.461 16.989l-.269-.156 1.149.268.269.157zM7.934 21.645l-.269-.157.806-1.781.269.156zM4.93 26.194l-.269-.156 1.283-.741.269.156zM11.531 14.611l-.269-.156 1.149.271.269.157zM9.007 19.271l-.269-.156.808-1.786.269.157z" opacity="1" data-original="#5b5e71" class=""></path><path fill="#5b5e71" d="m4.637 26.128-.269-.157.293.067.269.156zM12.607 12.239l-.269-.156 1.148.268.269.157zM10.08 16.898l-.269-.157.805-1.781.27.156zM5.71 23.754l-.269-.156 1.149.268.269.157z" opacity="1" data-original="#5b5e71" class=""></path><path fill="#ffb309" d="m3.923 26.775-.269-.156.068-.151.269.156zM14.735 10.115l-.269-.156-.005-1.979.269.157z" opacity="1" data-original="#474b59" class=""></path><g fill="#5b5e71"><path d="m13.68 9.863-.27-.156 1.056.252.269.156zM11.153 14.524l-.27-.156.806-1.785.269.157zM6.785 21.374l-.269-.157 1.149.271.269.157zM4.261 26.036l-.269-.156.805-1.785.27.157zM12.23 12.148l-.269-.157.806-1.784.269.157zM7.858 19.003l-.269-.157 1.149.269.269.156zM5.331 23.661l-.269-.156.808-1.786.269.157zM13.301 9.776l-.269-.157.808-1.785.269.156zM8.931 16.626l-.269-.156 1.149.271.269.157zM14.374 7.402l-.27-.156.352-.782.27.157zM6.404 21.29l-.269-.156.806-1.784.269.156zM2.226 27.755l-.269-.156 1.697-.98.269.156zM10.004 14.256l-.269-.157 1.148.269.27.156zM7.479 18.913l-.269-.157.808-1.785.27.156z" fill="#5b5e71" opacity="1" data-original="#5b5e71" class=""></path><path d="m3.11 25.766-.27-.156 1.152.27.269.156zM11.082 11.876l-.27-.156 1.149.271.269.157zM8.555 16.541l-.27-.157.806-1.784.269.156z" fill="#5b5e71" opacity="1" data-original="#5b5e71" class=""></path></g><path fill="#ffb309" d="m14.726 6.621-.27-.157-.003-1.112.269.156z" opacity="1" data-original="#474b59" class=""></path><path fill="#5b5e71" d="m4.182 23.393-.269-.157 1.149.269.269.156zM2.223 26.797l-.269-.156.241-.529.269.156zM12.152 9.507l-.269-.156 1.149.268.269.157zM9.625 14.166l-.269-.157.808-1.786.269.157zM5.255 21.019l-.269-.156 1.149.271.269.156zM2.728 25.678l-.269-.157.806-1.784.269.156zM13.225 7.131l-.269-.157 1.148.272.27.156zM10.698 11.795l-.269-.157.806-1.784.269.156zM6.328 18.646l-.269-.157 1.151.267.269.157zM3.804 23.303l-.27-.157.809-1.783.269.157z" opacity="1" data-original="#5b5e71" class=""></path><path fill="#5b5e71" d="m2.22 25.561-.269-.156.508.116.269.157zM14.298 4.757l-.269-.156.422.098.27.157zM11.773 9.414l-.269-.156.806-1.785.269.157z" opacity="1" data-original="#5b5e71" class=""></path><path fill="#ffb309" d="m14.721 4.856-.27-.157-.003-1.031.27.156z" opacity="1" data-original="#474b59" class=""></path><path fill="#5b5e71" d="m7.406 16.269-.269-.156 1.148.271.27.157zM4.879 20.928l-.269-.157.806-1.784.269.156zM12.846 7.041l-.269-.157.808-1.785.269.156zM8.476 13.897l-.269-.156 1.149.268.269.157zM5.949 18.558l-.269-.156.808-1.786.27.157zM13.919 4.667l-.269-.156.49-1.086.269.156zM2.997 23.112l-.269-.157.806.191.27.157zM9.549 11.521l-.269-.157 1.149.274.269.157zM7.025 16.181l-.27-.157.806-1.787.269.157z" opacity="1" data-original="#5b5e71" class=""></path><path fill="#ffb309" d="m1.687 28.69-.27-.156-.01-3.747.269.157z" opacity="1" data-original="#474b59" class=""></path><path fill="#5b5e71" d="m4.077 20.739-.269-.156.802.188.269.157zM10.624 9.146l-.269-.157 1.149.269.269.156zM8.097 13.804l-.269-.156.806-1.784.269.156zM5.152 18.37l-.269-.156.797.188.269.156zM11.697 6.769l-.269-.156 1.149.271.269.157zM9.17 11.431l-.269-.157.808-1.785.27.156zM6.233 15.992l-.27-.156.792.188.27.157zM12.929 4.436l-.269-.156.99.231.269.156zM10.246 9.056l-.27-.157.809-1.783.269.157z" opacity="1" data-original="#5b5e71" class=""></path><path fill="#5b5e71" d="m7.31 13.619-.269-.157.787.186.269.156zM11.318 6.682l-.269-.156.804-1.78.269.156zM8.386 11.249l-.269-.156.784.181.269.157zM9.466 8.872l-.269-.157.779.184.27.157z" opacity="1" data-original="#5b5e71" class=""></path><path fill="#5b5e71" d="m10.541 6.502-.269-.156.777.18.269.156zM10.684 5.109l-.269-.156 4.574-2.641.269.156z" opacity="1" data-original="#5b5e71" class=""></path><path fill="#3f434f" d="m10.684 5.109 4.575-2.641.052 18.356L1.687 28.69l-.011-3.746zm1.038 12.825-.808 1.786 1.149.274.808-1.786zm-3.434-.807-1.154-.266-.806 1.785 1.151.267zM3.11 25.766l1.151.27.806-1.784-1.151-.27zm6.276-6.405 1.149.274.808-1.786-1.149-.271zm-2.868 2.604-.808 1.789 1.149.269.808-1.786zm4.986-11.955-1.149-.274-.806 1.784 1.149.274zm1.797-.234.808-1.786-1.149-.269-.808 1.786zm-3.486 7.71-1.149-.269-.808 1.786 1.149.269zm.618-5.106-1.149-.269-.808 1.786 1.149.269zm-4.294 9.496-1.149-.269-.808 1.786 1.149.268zm6.541-6.993.808-1.786-1.149-.269-.808 1.783zm-5.895 6.491 1.149.271.806-1.782-1.149-.274zm4.297-9.498 1.149.271.806-1.784-1.149-.271zm-1.722 2.88-1.149-.271-.806 1.785 1.149.271zm-.429 1.87 1.149.271.806-1.782-1.149-.274zm-1.721 2.88-1.149-.271-.806 1.785 1.149.271zm4.057-4.304-.806 1.787 1.149.269.806-1.787zm1.174 4.879 1.149.269.808-1.786-1.149-.269zm1.213-14.826-1.149-.269-.808 1.783 1.149.271zm-1.047 6.984 1.149.269.806-1.784-1.149-.269zm-1.454 2.285.806-1.784-1.149-.269-.806 1.784zm.833 2.825 1.149.269.806-1.784-1.149-.269zm-.213-7.935.806-1.784-1.149-.269-.806 1.784zM9.116 19.955l-.806 1.784 1.149.269.806-1.784zm.727 2.14 1.149.269.806-1.784-1.149-.269zm-1.682 2.234.337-.194.697-1.536-1.149-.271-.808 1.786zm6.586-10.274-.002-.659-.875-.21-.811 1.787 1.151.273zm-.021-7.434-.003-1.112-.692-.165-.806 1.787 1.149.271zM3.81 21.329l-.813 1.783.807.191.808-1.783zm1.075-2.373-.808 1.783.802.188.806-1.784zm1.081-2.372-.814 1.786.797.188.808-1.786zm1.077-2.376-.811 1.784.792.188.806-1.787zm1.076-2.372-.809 1.783.787.186.806-1.784zm1.08-2.372-.813 1.786.785.181.808-1.786zm1.078-2.377-.811 1.785.78.184.808-1.783zM6.213 25.453l.379-.839-1.149-.271-.806 1.784.293.066zm8.544-7.686-.005-1.743-.43-.102-.806 1.784 1.149.269zm-1.684 3.726.25-.554-1.149-.269-.806 1.784.027.007zm-10.855 3.34.002.728.508.116.806-1.784-.804-.187zm12.517-14.718-.005-1.978-.244-.058-.806 1.784zm-3.769-4.546-.425.933.777.18.803-1.78zM3.923 26.775l.068-.151-1.149-.269-.617 1.364v.036zm10.842-6.259-.005-1.827-.791 1.753.657.154zm-5.699 3.29 1.524-.88-1.017-.244zm5.343-20.225-1.48.855.99.231zm.334 9.162-.004-1.482-.602 1.338zm-.022-7.887-.003-1.031-.42.933zm-7.94 20.269.58-.335-.388-.09zm-4.559 1.086.002.586.24-.529zM14.75 15.369l-.001-.395-.16.359zm-1.109 5.796.185-.107-.122-.03z" opacity="1" data-original="#3f434f" class=""></path><path fill="#565656" d="m1.676 24.944-.269-.157 9.008-19.834.269.156z" opacity="1" data-original="#565656"></path><path fill="#f9bb4a" d="m2.039 28.853-.269-.157L1.705 8.84l.269.156z" opacity="1" data-original="#f9bb4a" class=""></path><path fill="#fed57a" d="m1.974 8.996-.269-.156L15.284.999l.27.157z" opacity="1" data-original="#fed57a" class=""></path><path fill="#efac41" d="m15.554 1.156.065 19.856-13.58 7.841-.065-19.857z" opacity="1" data-original="#efac41" class=""></path><path fill="#eb4648" d="m4.457 6.514.002 1.522-1.619.935-.003-1.522z" opacity="1" data-original="#6eba6e" class=""></path><path fill="#75ca75" d="m2.597 29.171-.269-.157-.065-19.856.269.156z" opacity="1" data-original="#75ca75" class=""></path><path fill="#9ad898" d="m2.532 9.314-.269-.156 13.58-7.841.269.157z" opacity="1" data-original="#9ad898" class=""></path><path fill="#65aa65" d="m16.112 1.474.065 19.857-13.58 7.84-.065-19.857z" opacity="1" data-original="#65aa65" class=""></path><path fill="#576cfb" d="m6.465 6.014.003 1.521-1.62.935-.002-1.521zM3.155 29.489l-.269-.157-.065-19.856.269.156z" opacity="1" data-original="#576cfb" class=""></path><path fill="#748bfd" d="m3.09 9.632-.269-.156 13.58-7.841.269.157z" opacity="1" data-original="#748bfd" class=""></path><path fill="#4562ef" d="m16.67 1.792.065 19.857-13.58 7.84L3.09 9.632z" opacity="1" data-original="#4562ef" class=""></path><path fill="#e73832" d="m8.513 5.454.002 1.522-1.619.935-.003-1.522z" opacity="1" data-original="#e73832" class=""></path><path fill="#f25574" d="m3.713 29.807-.269-.157-.065-19.856.269.156z" opacity="1" data-original="#f25574" class=""></path><path fill="#f76d8e" d="m3.648 9.95-.269-.156 13.58-7.84.269.156z" opacity="1" data-original="#f76d8e" class=""></path><path fill="#ed435c" d="m17.228 2.11.065 19.857-13.58 7.84L3.648 9.95z" opacity="1" data-original="#ed435c" class=""></path><path fill="#f9bb4a" d="m10.747 4.785.002 1.522-1.619.935-.003-1.522z" opacity="1" data-original="#f9bb4a" class=""></path><path fill="#e7baa3" d="m4.271 30.125-.269-.157-.065-19.856.269.156z" opacity="1" data-original="#e7baa3" class=""></path><path fill="#ebc5b2" d="m4.206 10.268-.269-.156 13.58-7.84.269.156z" opacity="1" data-original="#ebc5b2" class=""></path><path fill="#eb4648" d="m17.786 2.428.065 19.857-13.58 7.84-.065-19.857z" opacity="1" data-original="#ddaf9b" class=""></path><path fill="#5b5e71" d="m18.08 22.604-.269-.157.139-.08.269.157zM17.095 23.173l-.269-.157.185-.107.27.157z" opacity="1" data-original="#5b5e71" class=""></path><path fill="#5b5e71" d="m17.423 22.45-.269-.156.657.153.269.157z" opacity="1" data-original="#5b5e71" class=""></path><path fill="#ffb309" d="m18.219 22.524-.269-.157-.005-1.827.269.157z" opacity="1" data-original="#474b59" class=""></path><path fill="#5b5e71" d="m16.527 23.501-.269-.157.25-.554.269.157zM17.044 22.357l-.269-.156.808-1.786.269.157z" opacity="1" data-original="#5b5e71" class=""></path><path fill="#ffb309" d="m18.119 19.982-.269-.156.092-.208.27.157z" opacity="1" data-original="#474b59" class=""></path><path fill="#5b5e71" d="m14.849 24.469-.269-.156 1.678-.969.269.157z" opacity="1" data-original="#5b5e71" class=""></path><path fill="#ffb309" d="m14.822 24.462-.269-.156.027.007.269.156z" opacity="1" data-original="#474b59" class=""></path><path fill="#5b5e71" d="m15.895 22.089-.269-.157 1.149.269.269.156z" opacity="1" data-original="#5b5e71" class=""></path><path fill="#ffb309" d="m18.212 19.775-.27-.157-.005-1.742.27.156z" opacity="1" data-original="#474b59" class=""></path><path fill="#5b5e71" d="m16.971 19.714-.27-.157 1.149.269.269.156zM14.446 24.371l-.269-.157.806-1.784.269.157zM18.043 17.34l-.269-.156.162.036.269.156zM15.516 22.002l-.269-.157.809-1.786.269.157z" opacity="1" data-original="#5b5e71" class=""></path><path fill="#ffb309" d="m18.205 17.376-.269-.156-.002-.395.27.156z" opacity="1" data-original="#474b59" class=""></path><path fill="#5b5e71" d="m16.589 19.625-.269-.156.806-1.785.269.157zM17.665 17.253l-.27-.156.537-1.191.269.156zM12.521 25.814l-.27-.157 1.524-.88.27.157zM13.297 24.102l-.269-.156 1.149.268.269.157z" opacity="1" data-original="#5b5e71" class=""></path><path fill="#ffb309" d="m18.201 16.062-.269-.156-.002-.659.269.157z" opacity="1" data-original="#474b59" class=""></path><path fill="#5b5e71" d="m14.368 21.727-.269-.156 1.148.274.269.157zM11.952 26.142l-.269-.157.697-1.536.269.157z" opacity="1" data-original="#5b5e71" class=""></path><path fill="#5b5e71" d="m11.616 26.336-.269-.156.336-.195.269.157zM15.441 19.357l-.27-.157 1.149.269.269.156zM12.914 24.015l-.27-.156.806-1.785.269.157zM16.513 16.98l-.269-.156 1.151.273.27.156zM13.989 21.643l-.269-.156.808-1.786.269.156zM17.591 14.607l-.269-.157.606.144.269.157zM15.064 19.265l-.269-.156.806-1.787.269.156zM10.236 27.133l-.27-.156.581-.336.269.157z" opacity="1" data-original="#5b5e71" class=""></path><path fill="#ffb309" d="m18.197 14.751-.269-.157-.004-1.482.269.156z" opacity="1" data-original="#474b59" class=""></path><path fill="#5b5e71" d="m10.692 26.12-.269-.156.924.216.269.156zM16.135 16.89l-.27-.156.809-1.786.269.157zM11.765 23.747l-.269-.157 1.148.269.27.156zM9.667 27.461l-.269-.156.379-.839.269.156zM17.21 14.515l-.269-.156.806-1.784.269.156zM12.84 21.369l-.269-.157 1.149.275.269.156zM10.313 26.03l-.269-.156.808-1.786.269.156zM13.915 18.997l-.269-.157 1.149.269.269.156zM11.388 23.652l-.269-.156.806-1.782.269.157zM8.385 28.202l-.269-.157 1.282-.74.269.156zM14.986 16.619l-.269-.156 1.148.271.27.156zM12.461 21.279l-.269-.157.808-1.785.27.156z" opacity="1" data-original="#5b5e71" class=""></path><path fill="#5b5e71" d="m8.092 28.135-.27-.156.294.066.269.157zM16.061 14.247l-.269-.157 1.149.269.269.156zM13.534 18.905l-.269-.156.806-1.782.269.157zM9.164 25.762l-.269-.157 1.149.269.269.156z" opacity="1" data-original="#5b5e71" class=""></path><path fill="#ffb309" d="m7.378 28.783-.269-.156.068-.152.269.157zM18.19 12.123l-.269-.157-.006-1.978.269.156z" opacity="1" data-original="#474b59" class=""></path><path fill="#5b5e71" d="m17.134 11.87-.269-.156 1.056.252.269.157zM14.607 16.532l-.269-.157.806-1.784.269.156zM10.24 23.381l-.27-.156 1.149.271.269.156zM7.715 28.044l-.269-.157.806-1.784.269.156zM15.685 14.155l-.269-.156.805-1.784.27.156zM11.313 21.01l-.27-.156 1.149.268.269.157zM8.786 25.669l-.27-.157.809-1.785.269.156zM16.755 11.783l-.269-.156.808-1.786.269.156zM12.385 18.634l-.269-.157 1.149.272.269.156zM17.828 9.41l-.269-.157.352-.781.269.156zM9.858 23.298l-.269-.156.806-1.785.269.157zM5.681 29.763l-.27-.157 1.698-.979.269.156zM13.458 16.263l-.269-.156 1.149.268.269.157zM10.934 20.92l-.269-.156.808-1.786.269.156z" opacity="1" data-original="#5b5e71" class=""></path><path fill="#5b5e71" d="m6.564 27.774-.269-.157 1.151.27.269.157zM14.536 13.884l-.269-.156 1.149.271.269.156zM12.009 18.548l-.269-.156.806-1.785.269.157z" opacity="1" data-original="#5b5e71" class=""></path><path fill="#ffb309" d="m18.18 8.628-.269-.156-.003-1.113.269.157z" opacity="1" data-original="#474b59" class=""></path><path fill="#5b5e71" d="m7.637 25.4-.269-.156 1.148.268.27.157zM5.678 28.805l-.269-.157.24-.529.269.157zM15.606 11.515l-.269-.157 1.149.269.269.156zM13.079 16.173l-.269-.156.809-1.786.269.156zM8.71 23.027l-.269-.157 1.148.272.269.156zM6.183 27.685l-.269-.156.805-1.785.27.157zM16.679 9.138l-.269-.156 1.149.271.269.157zM14.152 13.802l-.269-.156.806-1.784.269.156zM9.783 20.653l-.27-.156 1.152.267.269.156zM7.258 25.31l-.269-.156.808-1.783.269.156z" opacity="1" data-original="#5b5e71" class=""></path><path fill="#5b5e71" d="m5.674 27.569-.269-.157.509.117.269.156zM17.752 6.765l-.269-.157.423.099.269.156zM15.228 11.422l-.27-.157.806-1.784.269.156z" opacity="1" data-original="#5b5e71" class=""></path><path fill="#ffb309" d="m18.175 6.863-.269-.156-.003-1.032.269.157z" opacity="1" data-original="#474b59" class=""></path><path fill="#5b5e71" d="m10.86 18.277-.269-.157 1.149.272.269.156zM8.333 22.935l-.269-.156.806-1.785.269.157zM16.3 9.048l-.269-.156.809-1.786.269.156zM11.931 15.905l-.269-.157 1.148.269.269.156zM9.404 20.566l-.269-.157.808-1.785.269.156zM17.373 6.675l-.269-.157.49-1.085.27.156zM6.451 25.119l-.269-.156.807.191.269.156zM13.004 13.528l-.27-.156 1.149.274.269.156zM10.479 18.188l-.269-.156.806-1.787.269.156z" opacity="1" data-original="#5b5e71" class=""></path><path fill="#ffb309" d="m5.141 30.697-.269-.156-.011-3.746.269.156z" opacity="1" data-original="#474b59" class=""></path><path fill="#5b5e71" d="m7.532 22.747-.27-.156.802.188.269.156zM14.079 11.153l-.269-.156 1.148.268.27.157zM11.552 15.812l-.269-.157.806-1.784.269.156zM8.607 20.378l-.269-.157.797.188.269.157zM15.152 8.777l-.27-.156 1.149.271.269.156zM12.625 13.438l-.269-.156.808-1.786.269.157zM9.687 18l-.269-.157.792.189.269.156zM16.383 6.444l-.269-.157.99.231.269.157zM13.7 11.063l-.269-.156.808-1.783.269.156z" opacity="1" data-original="#5b5e71" class=""></path><path fill="#5b5e71" d="m10.765 15.626-.269-.156.787.185.269.157zM14.773 8.69l-.269-.157.803-1.78.269.157zM11.84 13.257l-.269-.157.785.182.269.156zM12.92 10.879l-.269-.156.78.184.269.156z" opacity="1" data-original="#5b5e71" class=""></path><path fill="#5b5e71" d="m13.996 8.51-.27-.157.778.18.269.157zM14.138 7.117l-.269-.157 4.578-2.643.269.156z" opacity="1" data-original="#5b5e71" class=""></path><path fill="#3f434f" d="m14.138 7.117 4.841-2.8.049 18.358-13.887 8.022-.011-3.746zm1.038 12.825-.808 1.786 1.149.274.808-1.786zm-3.434-.808-1.154-.266-.806 1.785 1.151.267zm-5.178 8.64 1.151.27.806-1.784-1.151-.27zm6.276-6.405 1.149.274.808-1.786-1.149-.271zm-2.867 2.604-.808 1.789 1.149.269.808-1.786zm4.985-11.955-1.149-.274-.806 1.784 1.149.274zm1.797-.235.808-1.786-1.149-.269-.808 1.786zm-3.485 7.71-1.149-.269-.808 1.786 1.149.269zm.618-5.106-1.149-.269-.808 1.786 1.149.269zm-4.294 9.496-1.149-.269-.808 1.786 1.149.268zm6.541-6.993.808-1.786-1.149-.269-.808 1.783zm-5.895 6.491 1.149.271.806-1.782-1.149-.274zm4.296-9.497 1.149.271.806-1.784-1.149-.271zm-1.721 2.88-1.149-.271-.806 1.785 1.149.271zm-.43 1.87 1.149.271.806-1.782-1.149-.274zm-1.721 2.88-1.149-.271-.805 1.784 1.149.271zm4.057-4.305-.806 1.787 1.149.269.806-1.787zm1.174 4.88 1.149.269.808-1.786-1.149-.269zm1.214-14.827-1.149-.268-.808 1.783 1.148.271zm-1.048 6.985 1.149.269.806-1.784-1.149-.269zm-1.454 2.285.806-1.784-1.149-.269-.806 1.784zm.834 2.825 1.149.269.806-1.784-1.149-.269zm-.213-7.935.806-1.784-1.149-.269-.806 1.784zm-2.657 10.54-.806 1.784 1.149.269.806-1.784zm.726 2.14 1.149.269.806-1.784-1.149-.269zm-1.681 2.234.337-.194.697-1.536-1.15-.272-.808 1.786zm6.585-10.274-.002-.659-.875-.21-.811 1.787 1.151.273zm-.021-7.434-.003-1.112-.692-.165-.806 1.787 1.149.271zM7.265 23.336l-.813 1.783.807.191.808-1.783zm1.075-2.372-.808 1.783.802.188.806-1.784zm1.08-2.372-.813 1.786.797.188.808-1.786zm1.078-2.377L9.687 18l.792.188.806-1.787zm1.075-2.372-.808 1.783.787.186.806-1.784zm1.08-2.372-.813 1.786.785.181.808-1.786zm1.078-2.376-.811 1.784.78.184.808-1.783zM9.667 27.461l.379-.839-1.149-.271-.806 1.784.293.066zm8.545-7.686-.005-1.743-.43-.102-.806 1.784 1.149.269zm-1.685 3.726.25-.554-1.149-.269-.806 1.784.027.007zM5.672 26.84l.002.728.508.116.806-1.784-.804-.187zM18.19 12.123l-.006-1.978-.244-.058-.806 1.784zm-3.77-4.546-.424.933.777.18.803-1.78zM7.378 28.783l.068-.151-1.149-.269-.617 1.364v.036zm10.841-6.259-.005-1.827-.791 1.753.657.154zm-5.698 3.29 1.524-.88-1.017-.244zm5.343-20.225-1.48.855.99.231zm.333 9.162-.004-1.482-.602 1.338zm-.022-7.888-.003-1.031-.42.933zm-7.939 20.27.58-.335-.389-.09zm-4.56 1.086.002.586.24-.529zm12.529-10.843-.001-.395-.16.359zm-1.11 5.797.185-.107-.122-.03z" opacity="1" data-original="#3f434f" class=""></path><path fill="#5b5e71" d="m5.13 26.951-.269-.156L13.869 6.96l.269.157z" opacity="1" data-original="#5b5e71" class=""></path><path fill="#ffb309" d="m5.141 30.697-3.724-2.163-.01-3.747 3.723 2.164z" opacity="1" data-original="#474b59" class=""></path><path fill="#5b5e71" d="m5.13 26.951.113-.248-3.455-2.007-.112.248z" opacity="1" data-original="#5b5e71" class=""></path><path fill="#eb4648" d="M47.55 38.261c-.096-.06-.234-.048-.384.036L30.041 48.403 4.65 33.644l15.722-9.272c.15-.09 1.69-.923 1.786-.869z" opacity="1" data-original="#e4e8f4" class=""></path><path fill="#eb4648" d="M30.041 48.403a.534.534 0 0 0-.252.432c0 .078.03.132.072.156L4.469 34.239c-.042-.03-.066-.084-.066-.156a.407.407 0 0 1 .072-.246.536.536 0 0 1 .174-.192z" opacity="1" data-original="#cad0dd" class=""></path><path fill="#ffb309" d="M47.156 38.289c.299-.173.541-.034.542.3.001.341-.24.752-.535.923l-17.136 9.457c-.134.073-.242.012-.242-.143 0-.079.026-.17.072-.245a.537.537 0 0 1 .176-.19z" opacity="1" data-original="#bac1ce" class=""></path><path fill="#5b5e71" d="M23.096 25.472c.11.064.105.163.001.224l-.52.302a.412.412 0 0 1-.386 0l-1.121-.647c-.11-.064-.111-.16-.001-.224l.52-.302a.42.42 0 0 1 .386 0zM22.039 26.086c.11.064.105.163.001.224l-1.119.65a.42.42 0 0 1-.386 0l-1.121-.647c-.11-.064-.105-.163-.001-.224l1.119-.65a.424.424 0 0 1 .386 0zM29.902 29.402c.105.06.105.163.001.224l-.52.302a.42.42 0 0 1-.386 0l-1.127-.65c-.105-.06-.105-.157.004-.221l.52-.302a.42.42 0 0 1 .381-.003zM28.199 28.418c.11.064.105.163.001.224l-.52.302a.412.412 0 0 1-.386 0l-1.121-.647c-.11-.064-.111-.16-.001-.224l.52-.302a.42.42 0 0 1 .386 0zM26.97 28.933c.11.064.105.163.001.224l-1.119.65a.42.42 0 0 1-.386 0l-1.121-.647c-.11-.064-.105-.163-.001-.224l1.119-.65a.424.424 0 0 1 .386 0zM31.605 30.385c.105.06.105.163.001.224l-.52.302a.424.424 0 0 1-.386 0l-1.127-.65c-.105-.06-.111-.16-.001-.224l.52-.302a.43.43 0 0 1 .386 0zM33.545 32.729c.105.06.105.163.001.224l-1.119.65a.43.43 0 0 1-.386 0l-1.127-.65c-.105-.06-.105-.163-.001-.224l1.119-.65a.436.436 0 0 1 .386 0zM36.708 33.331c.105.061.105.163.001.224l-.52.302a.42.42 0 0 1-.386 0l-1.127-.65c-.105-.06-.111-.16-.001-.224l.52-.302a.43.43 0 0 1 .386 0zM35.19 33.679c.105.061.1.16-.004.221l-1.119.65a.42.42 0 0 1-.381.003l-1.127-.65c-.11-.064-.105-.163-.001-.224l1.119-.65a.424.424 0 0 1 .386 0zM21.248 27.493c.105.061.105.163.001.224l-1.119.65a.433.433 0 0 1-.386 0l-1.939-1.119c-.11-.064-.105-.163-.001-.224l1.119-.65a.42.42 0 0 1 .386 0zM22.862 28.425c.105.061.105.163.001.224l-1.119.65a.433.433 0 0 1-.386 0l-1.127-.65c-.105-.06-.105-.163-.001-.224l1.119-.65a.43.43 0 0 1 .386 0zM24.47 29.353c.105.061.105.163.001.224l-1.119.65a.433.433 0 0 1-.386 0l-1.121-.647c-.11-.064-.105-.163-.001-.224l1.119-.65a.42.42 0 0 1 .386 0zM21.657 29.592c.105.06.1.16-.004.221l-1.119.65a.41.41 0 0 1-.376 0l-1.127-.65c-.105-.06-.111-.16-.006-.221l1.119-.65a.433.433 0 0 1 .386 0zM28.615 29.882c.105.06.105.163.001.224l-1.119.65a.43.43 0 0 1-.386 0l-1.127-.65c-.105-.061-.105-.163-.001-.224l1.119-.65a.433.433 0 0 1 .386 0zM19.163 30.016c.105.061.1.16-.004.221l-1.114.647a.41.41 0 0 1-.381.003l-3.007-1.736c-.105-.06-.111-.16-.001-.224l1.114-.647a.43.43 0 0 1 .386 0zM26.115 30.303c.105.06.105.163.001.224l-1.119.65a.433.433 0 0 1-.386 0l-1.127-.65c-.105-.061-.105-.163-.001-.224l1.119-.65a.43.43 0 0 1 .386 0zM23.265 30.521c.105.06.105.163.001.224l-1.119.65a.42.42 0 0 1-.381-.003l-1.127-.65c-.105-.06-.111-.16-.006-.221l1.119-.65a.433.433 0 0 1 .386 0zM30.26 30.832c.105.06.1.16-.004.221l-1.119.65a.42.42 0 0 1-.381.003l-1.127-.65c-.105-.06-.105-.163-.001-.224l1.119-.65a.433.433 0 0 1 .386 0zM20.912 30.965c.11.064.105.163.001.224l-1.119.65a.42.42 0 0 1-.386 0l-1.121-.647c-.105-.06-.105-.163-.001-.224l1.119-.65a.433.433 0 0 1 .386 0zM27.755 31.25c.11.064.105.163.001.224l-1.119.65a.424.424 0 0 1-.386 0l-1.121-.647c-.105-.06-.105-.163-.001-.224l1.119-.65a.43.43 0 0 1 .386 0zM24.911 31.471c.105.06.105.163.001.224l-1.119.65a.42.42 0 0 1-.381-.003l-1.127-.65c-.105-.06-.111-.16-.006-.221l1.119-.65a.433.433 0 0 1 .386 0zM18.843 31.749c.105.06.111.16.001.224l-1.254.729a.43.43 0 0 1-.386 0l-1.121-.647c-.11-.064-.105-.163-.001-.224l1.254-.729a.412.412 0 0 1 .386 0zM22.558 31.915c.11.064.105.163.001.224l-1.119.65a.42.42 0 0 1-.386 0l-1.121-.647c-.11-.064-.105-.163-.001-.224l1.119-.65a.424.424 0 0 1 .386 0zM29.401 32.2c.11.064.105.163.001.224l-1.119.65a.424.424 0 0 1-.386 0l-1.121-.647c-.11-.064-.105-.163-.001-.224l1.119-.65a.42.42 0 0 1 .386 0zM26.55 32.418c.11.064.105.163.001.224l-1.119.65a.41.41 0 0 1-.381-.003l-1.121-.647c-.11-.064-.111-.16-.006-.221l1.119-.65a.424.424 0 0 1 .386 0zM24.203 32.865c.105.06.105.163.001.224l-1.119.65a.43.43 0 0 1-.386 0l-1.127-.65c-.105-.061-.105-.163-.001-.224l1.119-.65a.433.433 0 0 1 .386 0zM20.84 32.902c.105.061.105.157-.004.221l-1.254.729a.42.42 0 0 1-.381.003l-1.483-.856c-.105-.06-.105-.163-.001-.224l1.254-.729a.42.42 0 0 1 .386 0zM31.046 33.15c.105.06.105.163.001.224l-1.119.65a.433.433 0 0 1-.386 0l-1.127-.65c-.105-.06-.105-.163-.001-.224l1.119-.65a.43.43 0 0 1 .386 0zM28.196 33.367c.105.061.105.163.001.224l-1.119.65a.42.42 0 0 1-.381-.003l-1.127-.65c-.105-.061-.111-.16-.006-.221l1.119-.65a.433.433 0 0 1 .386 0zM25.848 33.815c.105.061.105.163.001.224l-1.119.65a.43.43 0 0 1-.386 0l-1.127-.65c-.105-.061-.105-.163-.001-.224l1.119-.65a.433.433 0 0 1 .386 0zM38.411 34.314c.105.06.105.163.001.224l-.52.302a.42.42 0 0 1-.386 0l-1.127-.65c-.105-.061-.111-.16-.001-.224l.52-.302a.43.43 0 0 1 .386 0zM32.691 34.1c.105.061.1.16-.004.221l-1.119.65a.423.423 0 0 1-.381.003l-1.127-.65c-.11-.064-.105-.163-.001-.224l1.119-.65a.42.42 0 0 1 .386 0zM29.836 34.314c.11.064.105.163.001.224l-1.119.65a.41.41 0 0 1-.381-.003l-1.121-.647c-.105-.061-.111-.16-.006-.221l1.119-.65a.433.433 0 0 1 .386 0zM36.83 34.626c.11.064.105.163.001.224l-1.119.65a.42.42 0 0 1-.386 0l-1.121-.647c-.11-.064-.105-.163-.001-.224l1.119-.65a.424.424 0 0 1 .386 0zM27.488 34.762c.11.064.105.163.001.224l-1.119.65a.42.42 0 0 1-.386 0l-1.121-.647c-.11-.064-.105-.163-.001-.224l1.119-.65a.424.424 0 0 1 .386 0zM40.109 35.294c.11.064.105.163.001.224l-.52.302a.412.412 0 0 1-.386 0l-1.121-.647c-.11-.064-.111-.16-.001-.224l.52-.302a.42.42 0 0 1 .386 0zM34.331 35.046c.105.06.105.163.001.224l-1.119.65a.433.433 0 0 1-.386 0l-1.121-.647c-.11-.064-.105-.163-.001-.224l1.119-.65a.42.42 0 0 1 .386 0zM31.481 35.264c.11.064.105.163.001.224l-1.119.65a.41.41 0 0 1-.381-.003l-1.121-.647c-.11-.064-.111-.16-.006-.221l1.119-.65a.424.424 0 0 1 .386 0zM38.476 35.576c.105.06.105.163.001.224l-1.119.65a.43.43 0 0 1-.386 0l-1.127-.65c-.105-.061-.105-.163-.001-.224l1.119-.65a.433.433 0 0 1 .386 0zM29.133 35.712c.105.061.105.163.001.224l-1.119.65a.43.43 0 0 1-.386 0l-1.127-.65c-.105-.061-.1-.16.004-.221l1.119-.65a.423.423 0 0 1 .381-.003zM41.811 36.278c.105.061.105.163.001.224l-.52.302a.42.42 0 0 1-.386 0l-1.127-.65c-.105-.061-.105-.157.004-.221l.52-.302a.42.42 0 0 1 .381-.003zM35.976 35.996c.105.061.105.163.001.224l-1.119.65a.433.433 0 0 1-.386 0l-1.127-.65c-.105-.061-.105-.163-.001-.224l1.119-.65a.43.43 0 0 1 .386 0zM33.126 36.214c.105.06.105.163.001.224l-1.119.65a.42.42 0 0 1-.381-.003l-1.127-.65c-.105-.061-.111-.16-.006-.221l1.119-.65a.433.433 0 0 1 .386 0zM40.116 36.522c.11.064.105.163.001.224l-1.119.65a.42.42 0 0 1-.386 0l-1.121-.647c-.105-.061-.105-.163-.001-.224l1.119-.65a.433.433 0 0 1 .386 0zM30.779 36.662c.105.06.1.16-.004.221l-1.119.65a.42.42 0 0 1-.381.003l-1.127-.65c-.105-.06-.105-.163-.001-.224l1.119-.65a.433.433 0 0 1 .386 0zM43.514 37.261c.105.061.105.163.001.224l-.52.302a.42.42 0 0 1-.386 0l-1.127-.65c-.105-.061-.111-.16-.001-.224l.52-.302a.43.43 0 0 1 .386 0zM37.616 36.943c.11.064.105.163.001.224l-1.119.65a.424.424 0 0 1-.386 0l-1.121-.647c-.105-.06-.105-.163-.001-.224l1.119-.65a.43.43 0 0 1 .386 0zM34.771 37.164c.105.061.105.163.001.224l-1.119.65a.42.42 0 0 1-.381-.003l-1.127-.65c-.105-.06-.111-.16-.006-.221l1.119-.65a.436.436 0 0 1 .386 0zM41.729 37.454c.105.061.105.163.001.224l-1.119.65a.43.43 0 0 1-.386 0l-1.127-.65c-.105-.06-.105-.163-.001-.224l1.119-.65a.433.433 0 0 1 .386 0zM29.045 37.639c.105.061.111.16.001.224l-1.254.729a.43.43 0 0 1-.386 0l-7.655-4.42c-.105-.061-.105-.163-.001-.224l1.254-.729a.42.42 0 0 1 .386 0zM39.261 37.893c.11.064.105.163.001.224l-1.119.65a.424.424 0 0 1-.386 0l-1.127-.65c-.105-.061-.1-.16.004-.221l1.119-.65a.42.42 0 0 1 .381-.003zM36.411 38.111c.11.064.105.163.001.224l-1.119.65a.41.41 0 0 1-.381-.003l-1.121-.647c-.11-.064-.111-.16-.006-.221l1.119-.65a.424.424 0 0 1 .386 0zM34.064 38.558c.105.061.105.163.001.224l-1.119.65a.43.43 0 0 1-.386 0l-1.127-.65c-.105-.06-.105-.163-.001-.224l1.119-.65a.433.433 0 0 1 .386 0zM40.907 38.843c.105.061.105.163.001.224l-1.119.65a.433.433 0 0 1-.386 0l-1.127-.65c-.105-.06-.105-.163-.001-.224l1.119-.65a.43.43 0 0 1 .386 0zM44.161 38.858c.105.061.1.16-.004.221l-1.119.65a.42.42 0 0 1-.381.003l-1.944-1.122c-.105-.06-.105-.163-.001-.224l1.119-.65a.436.436 0 0 1 .386 0zM31.057 38.8c.105.061.111.16.001.224l-1.254.729a.433.433 0 0 1-.386 0L27.94 38.9c-.11-.064-.105-.163-.001-.224l1.254-.729a.412.412 0 0 1 .386 0zM38.057 39.061c.105.06.105.163.001.224l-1.119.65a.42.42 0 0 1-.381-.003l-1.127-.65c-.105-.06-.111-.16-.006-.221l1.119-.65a.436.436 0 0 1 .386 0zM35.704 39.505c.11.064.105.163.001.224l-1.119.65a.42.42 0 0 1-.386 0l-1.121-.647c-.11-.064-.105-.163-.001-.224l1.119-.65a.424.424 0 0 1 .386 0zM42.552 39.793c.105.061.1.16-.004.221l-1.119.65a.423.423 0 0 1-.381.003l-1.127-.65c-.11-.064-.105-.163-.001-.224l1.119-.65a.42.42 0 0 1 .386 0zM32.781 39.796c.11.064.111.16.001.224l-1.254.729a.42.42 0 0 1-.386 0l-1.153-.666c-.105-.06-.105-.163-.001-.224l1.254-.729a.42.42 0 0 1 .386 0zM40.917 40.712c.105.06.105.163.001.224l-1.119.65a.42.42 0 0 1-.381-.003l-2.326-1.343c-.11-.064-.111-.16-.006-.221l1.119-.65a.424.424 0 0 1 .386 0zM33.707 41.163c.11.064.111.16.001.224l-.536.312a.42.42 0 0 1-.386 0l-1.153-.666c-.11-.064-.105-.163-.001-.224l.536-.312a.412.412 0 0 1 .386 0zM39.309 41.647c.105.061.105.163.001.224l-1.114.647a.42.42 0 0 1-.386 0l-3.139-1.812c-.105-.061-.111-.16-.001-.224l1.114-.647a.433.433 0 0 1 .386 0zM36.071 41.695c.105.06.111.16.001.224l-1.254.729a.43.43 0 0 1-.386 0l-1.158-.669c-.105-.06-.105-.163-.001-.224l1.254-.729a.42.42 0 0 1 .386 0zM37.014 43.072c.11.064.111.16.001.224l-.536.312a.42.42 0 0 1-.386 0l-1.153-.666c-.11-.064-.105-.163-.001-.224l.536-.312a.412.412 0 0 1 .386 0zM20.027 28.651c.105.06.105.163.001.224l-1.119.65a.42.42 0 0 1-.381-.003l-2.326-1.343c-.11-.064-.111-.16-.006-.221l1.119-.65a.424.424 0 0 1 .386 0zM26.501 27.438c.105.06.1.16-.004.221l-.52.302a.41.41 0 0 1-.381.003l-1.127-.65c-.105-.06-.111-.16-.001-.224l.52-.302a.43.43 0 0 1 .386 0zM24.799 26.455c.105.06.105.163.001.224l-.52.302a.42.42 0 0 1-.386 0l-1.127-.65c-.105-.061-.111-.16-.001-.224l.52-.302a.43.43 0 0 1 .386 0zM25.33 27.986c.105.06.105.163.001.224l-1.119.65a.43.43 0 0 1-.386 0l-1.127-.65c-.105-.06-.105-.163-.001-.224l1.119-.65a.436.436 0 0 1 .386 0zM23.684 27.036c.105.06.105.163.001.224l-1.119.65a.43.43 0 0 1-.386 0l-1.127-.65c-.105-.06-.105-.163-.001-.224l1.119-.65a.433.433 0 0 1 .386 0zM15.569 29.858c.105.06.111.16.001.224l-1.254.729a.433.433 0 0 1-.386 0l-1.127-.65c-.105-.06-.1-.16.004-.221l1.254-.729a.41.41 0 0 1 .381-.003zM17.209 30.805c.105.061.111.16.001.224l-1.254.729a.43.43 0 0 1-.386 0l-1.127-.65c-.105-.06-.105-.163-.001-.224l1.254-.729a.42.42 0 0 1 .386 0zM35.005 32.348c.11.064.105.163.001.224l-.52.302a.412.412 0 0 1-.386 0l-1.121-.647c-.11-.064-.111-.16-.001-.224l.52-.302a.42.42 0 0 1 .386 0zM33.302 31.365c.11.064.105.163.001.224l-.52.302a.412.412 0 0 1-.386 0l-1.121-.647c-.105-.061-.111-.16-.001-.224l.52-.302a.43.43 0 0 1 .386 0zM31.9 31.779c.11.064.105.163.001.224l-1.119.65a.42.42 0 0 1-.386 0l-1.121-.647c-.11-.064-.105-.163-.001-.224l1.119-.65a.424.424 0 0 1 .386 0zM45.217 38.244c.105.061.1.16-.004.221l-.52.302a.41.41 0 0 1-.381.003l-1.127-.65c-.11-.064-.111-.16-.001-.224l.52-.302a.42.42 0 0 1 .386 0zM32.419 37.609c.11.064.105.163.001.224l-1.119.65a.42.42 0 0 1-.386 0l-1.121-.647c-.11-.064-.105-.163-.001-.224l1.119-.65a.424.424 0 0 1 .386 0z" opacity="1" data-original="#5b5e71" class=""></path><path fill="#ffb309" d="M26.797 39.443c.105.06.111.16.001.224l-4.648 2.651a.43.43 0 0 1-.386 0l-7.655-4.42c-.105-.06-.105-.163-.001-.224l4.648-2.651a.42.42 0 0 1 .386 0z" opacity="1" data-original="#bac1ce" class=""></path><path fill="#eb4648" d="M47.139 18.115a.786.786 0 0 1 .356.617l-.05 17.503c-.001.226-.162.318-.359.204l-24.075-13.9a.773.773 0 0 1-.356-.617l.05-17.503c.001-.23.158-.32.359-.204z" opacity="1" data-original="#6eba6e" class=""></path><path fill="#5b5e71" d="m48.605 18.845-.053 17.506c0 .318-.111.541-.292.647l-.456.265c.18-.106.297-.329.297-.653l.048-17.5c0-.647-.451-1.422-1.008-1.746L23.066 3.467c-.281-.165-.536-.18-.722-.074l.456-.266c.18-.106.435-.09.722.074l24.075 13.897c.557.325 1.008 1.1 1.008 1.747z" opacity="1" data-original="#5b5e71" class=""></path><path fill="#ffb309" d="M47.141 17.365c.556.321 1.01 1.099 1.008 1.746l-.05 17.503c-.002.646-.458.899-1.014.578l-24.075-13.9c-.563-.325-1.01-1.099-1.008-1.746l.05-17.503c.002-.646.451-.903 1.014-.578zm.305 18.871.05-17.503a.785.785 0 0 0-.356-.617l-24.075-13.9c-.201-.116-.359-.026-.36.204l-.05 17.503a.772.772 0 0 0 .356.617l24.075 13.9c.198.114.359.022.36-.204" opacity="1" data-original="#474b59" class=""></path><path fill="#eb4648" d="M27.325 25.458c-.07-.041-.167-.035-.273.027a.843.843 0 0 0-.383.662c.001.121.044.206.112.246l-2.791-1.622c-.069-.041-.112-.125-.112-.247a.84.84 0 0 1 .382-.662c.107-.061.203-.067.273-.026z" opacity="1" data-original="#cad0dd" class=""></path><path fill="#b2b2b2" d="M27.051 25.485a.84.84 0 0 0-.382.662c.001.244.172.342.385.219a.843.843 0 0 0 .383-.662c-.002-.243-.174-.341-.386-.219z" opacity="1" data-original="#b2b2b2"></path><path fill="#eb4648" d="M44.444 35.503c-.07-.041-.167-.035-.273.027a.843.843 0 0 0-.383.662c.001.121.044.206.112.246l-2.791-1.622c-.069-.041-.112-.125-.112-.247a.84.84 0 0 1 .382-.662c.107-.061.203-.067.273-.026z" opacity="1" data-original="#cad0dd" class=""></path><path fill="#ffb309" d="M44.17 35.53a.84.84 0 0 0-.382.662c.001.244.172.342.385.219.212-.122.383-.418.383-.662s-.174-.342-.386-.219z" opacity="1" data-original="#bac1ce" class=""></path><path fill="#c2d4e3" d="m45.798 46.699-.361-.21-.001-.418.361.21z" opacity="1" data-original="#c2d4e3" class=""></path><path fill="#5b5e71" d="M47.701 43.715c.003.807-.567 1.794-1.266 2.199l-.638.366-.361-.21.638-.367c.7-.405 1.269-1.392 1.266-2.199 0-.4-.144-.682-.372-.815l.361.21c.228.135.372.417.372.816z" opacity="1" data-original="#5b5e71" class=""></path><path fill="#c2d4e3" d="m45.789 43.355-.362-.21-.001-.418.362.21z" opacity="1" data-original="#c2d4e3" class=""></path><path fill="#5b5e71" d="M47.588 42.457c-.297-.174-.71-.149-1.164.113l-.636.367-.361-.208.636-.369c.454-.261.866-.287 1.164-.113z" opacity="1" data-original="#5b5e71" class=""></path><path fill="#3f434f" d="M46.424 42.57c.902-.521 1.639-.102 1.642.936.003 1.036-.73 2.305-1.631 2.826l-.637.368-.001-.417.637-.368c.7-.404 1.27-1.391 1.268-2.197-.002-.807-.575-1.133-1.276-.729l-.637.368-.001-.418z" opacity="1" data-original="#3f434f" class=""></path><path fill="#e63044" d="m46.222 42.259-.003 1.074v.005l-.01 3.512c0-.366-.241-.73-.723-1.005-.959-.556-2.52-.556-3.473 0-.441.256-.679.587-.71.923v.008c-.003.02-.003.043-.003.066l.013-4.596c0-.361.238-.723.713-1 .954-.554 2.515-.554 3.473 0 .484.28.725.646.723 1.013z" opacity="1" data-original="#e63044" class=""></path><path fill="#e5a03c" d="M46.22 43.333v.005l-.01 3.512c0-.366-.241-.73-.723-1.005-.959-.556-2.52-.556-3.473 0-.441.256-.679.587-.71.923l.01-3.368c0-.361.238-.723.713-1 .954-.554 2.515-.554 3.473 0 .448.259.689.592.72.933z" opacity="1" data-original="#e5a03c" class=""></path><path fill="#e63044" d="m46.48 42.261-.013 4.597c-.001.4-.263.799-.787 1.103-1.054.612-2.776.612-3.837 0-.534-.308-.801-.714-.8-1.119l.013-4.597c-.001.405.265.81.8 1.119 1.061.612 2.783.612 3.837 0 .524-.304.786-.703.787-1.103z" opacity="1" data-original="#e63044" class=""></path><path fill="#f25574" d="M45.681 41.142c1.061.612 1.068 1.609.013 2.222-1.054.612-2.776.612-3.837 0-1.062-.613-1.066-1.61-.013-2.222 1.055-.613 2.775-.614 3.837 0zm-3.644 2.117c.961.555 2.519.554 3.473-.001s.951-1.457-.01-2.012-2.52-.555-3.475 0c-.954.555-.949 1.459.012 2.013" opacity="1" data-original="#f25574" class=""></path><path fill="#eb4648" d="m18.062 44.529-4.708 2.717a.808.808 0 0 1-.249.09c-.249.06-.547.03-.747-.09l-3.683-2.14-.836-.488-1.294-.747-4.609-2.678c-.269-.159-.269-.418 0-.577l1.911-1.105c.07-.04.179-.04.279-.02.159.039.348.02.488-.06.129-.07.159-.179.09-.279-.04-.059-.03-.12.05-.159l1.901-1.095c.269-.159.717-.159.985 0l.269.149 1.284.757.836.488 4.36 2.528 3.673 2.13c.279.161.269.42 0 .579z" opacity="1" data-original="#658bee" class=""></path><path fill="#ffb309" d="m1.401 40.894.004.927c0 .155.102.306.303.424l10.42 6.058c.409.235 1.067.235 1.472.004l4.711-2.72c.204-.118.306-.276.306-.431v-.923c0 .155-.102.31-.31.431l-4.711 2.717c-.401.235-1.063.235-1.472-.004l-10.42-6.054c-.201-.119-.303-.274-.303-.429z" opacity="1" data-original="#474b59" class=""></path><path fill="#5b5e71" d="M6.408 37.757c.408-.236 1.073-.236 1.476-.001l10.421 6.056c.408.237.403.621-.005.856l-4.711 2.72c-.403.233-1.063.233-1.471-.004L1.697 41.327c-.403-.234-.403-.618 0-.851zm5.952 9.49c.274.159.721.159.997 0l4.708-2.718c.271-.156.274-.417-.002-.577L7.642 37.895c-.274-.159-.717-.159-.992 0l-1.901 1.098c-.075.043-.082.106-.042.163.064.093.033.204-.098.279a.71.71 0 0 1-.487.059.392.392 0 0 0-.279.022l-1.906 1.1c-.271.156-.272.416-.001.573z" opacity="1" data-original="#5b5e71" class=""></path><path fill="#c1c1c1" d="M4.254 43.219c-.087-.05-.156-.009-.157.091 0 .099.068.219.156.27l.715.413c.086.05.156.009.157-.089 0-.1-.07-.222-.156-.271z" opacity="1" data-original="#c1c1c1" class=""></path><g fill="#d4dae8"><path d="m4.281 43.127-.137.081c.027-.015.066-.012.11.012l.714.413a.346.346 0 0 1 .157.271c0 .049-.017.083-.046.098l.139-.078c.027-.017.044-.051.044-.1 0-.1-.068-.222-.154-.271l-.717-.413c-.044-.025-.081-.028-.11-.013zM2.919 42.481a.135.135 0 0 1 .093.02l.714.413a.346.346 0 0 1 .157.271c0 .049-.017.083-.046.1l.137-.081c.029-.015.046-.051.046-.1 0-.1-.068-.22-.154-.271l-.717-.411c-.044-.027-.083-.029-.11-.012z" fill="#d4dae8" opacity="1" data-original="#d4dae8" class=""></path></g><path fill="#c1c1c1" d="M3.011 42.502c-.087-.05-.156-.009-.157.091 0 .099.068.219.156.27l.715.413c.086.05.156.009.157-.089 0-.1-.07-.222-.156-.271z" opacity="1" data-original="#c1c1c1" class=""></path><path fill="#8facfc20" d="m9.193 38.805-1.354 5.814-1.294-.747 1.364-5.824zM14.389 41.821l-1.284 5.515c-.249.06-.547.03-.747-.09l-3.683-2.14 1.354-5.813z" opacity="1" data-original="#8facfc20" class=""></path><path fill="#9ad898" d="M37.382 20.488c-.003 1.116-.386 1.901-1.015 2.28-.487.305-1.122.357-1.836.114a3.814 3.814 0 0 1-.753-.341c-.24-.14-.48-.302-.71-.49-.71-.574-1.343-1.346-1.833-2.202-.642-1.119-1.035-2.368-1.032-3.503.006-2.28 1.615-3.198 3.597-2.053 1.983 1.142 3.589 3.918 3.582 6.195z" opacity="1" data-original="#9ad898" class=""></path><path fill="#f6cbb8" d="M34.504 17.204c.213.2.331 1.419.387 1.452.019-.012.048-.084.079-.197a.504.504 0 0 1 .056.213c.02.218.04.505-.091.429a.313.313 0 0 1-.049-.038c-.006.017-.118.337-.348.565-.181.179-.43.292-.747.123-.298-.186-.535-.552-.711-.917-.249-.516-.368-1.005-.375-1.03a.137.137 0 0 1-.049-.018c-.131-.076-.11-.34-.091-.535.016-.143.059-.156.086-.149.015.065.026.102.026.104-.02-.236.078-.607.175-.741.197.274.407.453.609.57.552.318 1.018.177 1.043.169z" opacity="1" data-original="#f6cbb8" class=""></path><path fill="#ffffff" d="m33.077 19.393.001.294c-.001.316.222.703.497.862l.462.267c.275.159.498.03.499-.287l.001-.293-.005 2.648a3.953 3.953 0 0 1-.752-.341 5.469 5.469 0 0 1-.71-.491z" opacity="1" data-original="#ffffff" class=""></path><path fill="#e7baa3" d="m34.538 19.627-.002.608-.001.293c-.001.316-.223.446-.499.287l-.462-.267c-.275-.159-.498-.545-.497-.862l.001-.293.002-.56c.176.365.413.731.711.917.317.169.567.056.747-.123z" opacity="1" data-original="#e7baa3" class=""></path><path fill="#d4dae8" d="M32.853 16.465a.7.7 0 0 0-.052.084c.023-.062.04-.097.041-.099l.011.015z" opacity="1" data-original="#d4dae8" class=""></path><path fill="#6f4d42" d="M34.316 16.085c.025.016.507.317.692 1.003.135.499.043 1.075-.038 1.371a.621.621 0 0 1-.075.197c-.061-.032-.179-1.252-.392-1.452-.025.007-.491.149-1.041-.169a1.982 1.982 0 0 1-.609-.57l-.011-.015c-.035.1-.191.436-.164.756a1.797 1.797 0 0 1-.026-.104c-.051-.224-.145-.751.029-1.024-.01-.012-.194-.239-.098-.678.003.003.056.059.137.105.086.049.199.085.3.021.703-.451 2.018 1.503 1.296.559z" opacity="1" data-original="#6f4d42" class=""></path><g fill="#e73832"><path d="m33.074 19.395-.008 2.653c-.709-.568-1.343-1.343-1.829-2.2.058-.346.14-.634.247-.651.19-.041.915.001 1.59.198zM36.362 22.773c-.486.296-1.121.354-1.829.107l.008-2.645c.676.585 1.401 1.384 1.59 1.64.099.132.181.503.231.898z" fill="#e73832" opacity="1" data-original="#e73832" class=""></path></g><path fill="#ffffff" d="M36.862 26.818a.588.588 0 0 1 .262.454l-.002.81c0 .163-.122.232-.264.151l-7.138-4.121a.58.58 0 0 1-.262-.454l.002-.81c0-.163.117-.235.264-.15zM36.867 24.889a.579.579 0 0 1 .262.454l-.002.804c0 .169-.122.232-.264.15l-7.138-4.121a.57.57 0 0 1-.262-.454l.002-.804c0-.169.117-.235.264-.15z" opacity="1" data-original="#ffffff" class=""></path></g></svg>