<svg xmlns="http://www.w3.org/2000/svg" version="1.1" xmlns:xlink="http://www.w3.org/1999/xlink" width="512" height="512" x="0" y="0" viewBox="0 0 474.501 474.501" style="enable-background:new 0 0 512 512" xml:space="preserve" class=""><g transform="matrix(1.0000000000000004,0,0,1.0000000000000004,-5.684341886080802e-14,-8.526512829121202e-14)"><path d="M375.851 318.666h-5.048V157.422c0-1.731-.721-3.461-2.019-4.759-1.298-1.298-3.029-2.019-4.759-2.019H102.833c-1.731 0-3.606.721-4.759 2.019-1.298 1.298-2.019 3.029-2.019 4.759v161.244h-5.192V157.422c0-3.173 1.298-6.202 3.461-8.365a11.901 11.901 0 0 1 8.365-3.461h261.192c3.173 0 6.057 1.298 8.365 3.461 2.308 2.308 3.461 5.192 3.461 8.365v161.244h.144z" style="" fill="#41464b" data-original="#41464b" class=""></path><path d="M389.408 346.069H77.449c-4.038 0-7.788-1.586-10.528-4.327-2.885-2.884-4.327-6.634-4.327-10.528v-14.999h130.524l6.634 7.211h67.497l6.634-7.211h130.524v14.999c0 4.038-1.586 7.788-4.327 10.528-3.028 2.884-6.777 4.327-10.672 4.327zM67.497 321.262v9.952c0 2.596 1.01 5.192 2.885 7.067s4.327 2.885 7.067 2.885h311.959c2.596 0 5.192-1.01 7.067-2.885 1.875-1.875 2.885-4.327 2.885-7.067v-9.952H276.047l-6.634 7.211h-71.968l-6.634-7.211H67.497z" style="" fill="#41464b" data-original="#41464b" class=""></path><path d="M110.332 164.922h246.193v137.014H110.332z" style="" fill="#eb4648" data-original="#fed65c" class="" opacity="1"></path><path d="M181.003 106.222h.433c-.577-1.442-.865-3.173-.865-4.904a13.54 13.54 0 0 1 13.557-13.557c2.019 0 4.038.433 5.769 1.298a23.152 23.152 0 0 1 22.211-16.442c12.836 0 23.22 10.384 23.22 23.22v.721a13.54 13.54 0 0 1 13.557 13.557 13.54 13.54 0 0 1-13.557 13.557h-64.325c-4.759 0-8.654-3.894-8.654-8.654 0-5.046 3.894-8.796 8.654-8.796z" style="" fill="#ffde00" data-original="#4cbed8" class="" opacity="1"></path><path d="M216.966 215.616h2.452v5.048h-2.452z" style="" transform="rotate(-134.999 218.193 218.141)" fill="#41464b" data-original="#41464b" class=""></path><path d="m211.867 215.401-3.606-3.606 3.606-3.606 3.606 3.606-3.606 3.606zm-7.211-7.212-3.606-3.606 3.606-3.606 3.606 3.606-3.606 3.606zm-7.356-7.355-3.606-3.606 3.606-3.606 3.606 3.606-3.606 3.606zm-7.355-7.356-3.606-3.606 3.606-3.606 3.606 3.606-3.606 3.606zm-7.356-7.211-3.606-3.75 3.606-3.606 3.606 3.606-3.606 3.75zm-7.211-7.355-3.75-3.606 3.606-3.606 3.606 3.606-3.462 3.606zm-7.355-7.356-3.606-3.606 3.606-3.606 3.606 3.606-3.606 3.606zm-7.356-7.211-3.606-3.606 3.606-3.606 3.606 3.606-3.606 3.606zm-7.211-7.356-3.606-3.606 3.606-3.606 3.606 3.606-3.606 3.606zm-7.356-7.355-3.606-3.606 3.606-3.606 3.606 3.606-3.606 3.606zm-7.355-7.356-3.606-3.606 3.606-3.606 3.606 3.606-3.606 3.606zm-7.356-7.211-3.606-3.606 3.606-3.606 3.606 3.606-3.606 3.606z" style="" fill="#41464b" data-original="#41464b" class=""></path><path d="M123.752 122.531h2.596v5.048h-2.596z" style="" transform="rotate(-134.967 125.05 125.055)" fill="#41464b" data-original="#41464b" class=""></path><path d="M339.167 123.748h5.048v2.596h-5.048z" style="" transform="rotate(-135.032 341.692 125.047)" fill="#41464b" data-original="#41464b" class=""></path><path d="m254.99 215.401-3.606-3.606 3.606-3.606 3.606 3.606-3.606 3.606zm7.212-7.212-3.606-3.606 3.606-3.606 3.606 3.606-3.606 3.606zm7.355-7.355-3.606-3.606 3.606-3.606 3.606 3.606-3.606 3.606zm7.356-7.356-3.606-3.606 3.606-3.606 3.606 3.606-3.606 3.606zm7.211-7.211-3.606-3.606 3.606-3.606 3.606 3.606-3.606 3.606zm7.355-7.355-3.606-3.606 3.606-3.606 3.606 3.606-3.606 3.606zm7.356-7.356-3.606-3.606 3.606-3.606 3.606 3.606-3.606 3.606zm7.355-7.211-3.606-3.606 3.606-3.606 3.606 3.606-3.606 3.606zm7.212-7.356-3.606-3.606 3.606-3.606 3.606 3.606-3.606 3.606zm7.355-7.355-3.606-3.606 3.606-3.606 3.606 3.606-3.606 3.606zm7.356-7.356-3.606-3.606 3.606-3.606 3.606 3.606-3.606 3.606zm7.211-7.211-3.606-3.606 3.606-3.606 3.606 3.606-3.606 3.606z" style="" fill="#41464b" data-original="#41464b" class=""></path><path d="M246.108 216.982h5.048v2.452h-5.048z" style="" transform="rotate(-134.991 248.633 218.209)" fill="#41464b" data-original="#41464b" class=""></path><path d="M230.905 44.782h5.048v168.455h-5.048z" style="" fill="#41464b" data-original="#41464b" class=""></path><path d="M117.976 109.828a8.064 8.064 0 0 1-8.077 8.077c-4.471 0-8.077-3.606-8.077-8.077s3.606-8.077 8.077-8.077a8.063 8.063 0 0 1 8.077 8.077zM365.034 109.828c0 4.471-3.606 8.077-8.077 8.077s-8.077-3.606-8.077-8.077 3.606-8.077 8.077-8.077 8.077 3.606 8.077 8.077z" style="" fill="#ff7443" data-original="#ff7443" class="" opacity="1"></path><path d="M233.357 16.514c4.471 0 8.077 3.606 8.077 8.077s-3.606 8.077-8.077 8.077-8.077-3.606-8.077-8.077 3.75-8.077 8.077-8.077z" style="" fill="#fdff00" data-original="#afafaf" class="" opacity="1"></path><path d="M109.9 132.615c-6.057 0-11.826-2.308-16.009-6.634-4.327-4.327-6.634-9.952-6.634-16.153 0-6.057 2.308-11.826 6.634-16.009 4.327-4.327 9.952-6.634 16.009-6.634s11.826 2.308 16.009 6.634c4.327 4.327 6.634 9.952 6.634 16.009s-2.308 11.826-6.634 16.009c-4.327 4.326-9.952 6.778-16.009 6.778zm0-40.383c-4.759 0-9.23 1.875-12.548 5.192a17.674 17.674 0 0 0-5.192 12.548c0 4.759 1.875 9.23 5.192 12.548a17.674 17.674 0 0 0 12.548 5.192c4.759 0 9.23-1.875 12.548-5.192a17.674 17.674 0 0 0 5.192-12.548c0-4.759-1.875-9.23-5.192-12.548-3.462-3.461-7.933-5.192-12.548-5.192zM356.958 132.615c-5.769 0-11.682-2.163-16.009-6.634-8.798-8.798-8.798-23.22 0-32.162 8.942-8.798 23.365-8.798 32.162 0 4.327 4.327 6.634 9.952 6.634 16.009s-2.308 11.826-6.634 16.009c-4.471 4.471-10.24 6.778-16.153 6.778zm0-40.383c-4.471 0-9.086 1.731-12.548 5.192-6.923 6.923-6.923 18.172 0 24.951 6.923 6.923 18.172 6.923 24.951 0a17.674 17.674 0 0 0 5.192-12.548c0-4.759-1.875-9.23-5.192-12.548-3.317-3.316-7.788-5.047-12.403-5.047zM233.357 47.378c-12.548 0-22.788-10.24-22.788-22.788s10.24-22.788 22.788-22.788c6.057 0 11.826 2.308 16.009 6.634 4.327 4.327 6.634 9.952 6.634 16.009.144 12.693-10.096 22.933-22.643 22.933zm0-40.383c-9.807 0-17.74 7.932-17.74 17.74 0 9.807 7.932 17.74 17.74 17.74s17.74-7.932 17.74-17.74c0-4.759-1.875-9.23-5.192-12.548-3.318-3.461-7.789-5.192-12.548-5.192zM233.357 256.072c-12.548 0-22.788-10.24-22.788-22.788s10.24-22.788 22.788-22.788c6.057 0 11.826 2.308 16.009 6.634 4.327 4.327 6.634 9.952 6.634 16.009.144 12.837-10.096 22.933-22.643 22.933zm0-40.383c-9.807 0-17.74 7.932-17.74 17.74s7.932 17.74 17.74 17.74 17.74-7.932 17.74-17.74c0-4.759-1.875-9.23-5.192-12.548a17.677 17.677 0 0 0-12.548-5.192z" style="" fill="#41464b" data-original="#41464b" class=""></path><path d="M230.905 225.352h5.048v16.153h-5.048z" style="" fill="#41464b" data-original="#41464b" class=""></path><path d="M225.28 230.833h16.153v5.048H225.28z" style="" fill="#41464b" data-original="#41464b" class=""></path><path d="M459.358 175.306v80.91h-16.442v18.461l-18.461-18.461h-94.612v-80.91z" style="" fill="#ff7443" data-original="#ff7443" class="" opacity="1"></path><path d="m384.793 204.439 19.759 11.394-19.759 11.394z" style="" fill="#ffffff" data-original="#ffffff"></path><path d="M474.501 243.669h-5.048V165.21h-78.891v-5.048h83.939z" style="" fill="#41464b" data-original="#41464b" class=""></path><path d="M184.32 49.541a6.771 6.771 0 0 1 6.779 6.779c0 3.75-3.029 6.779-6.779 6.779s-6.779-3.029-6.779-6.779c.145-3.75 3.173-6.779 6.779-6.779z" style="" fill="#fdff00" data-original="#afafaf" class="" opacity="1"></path><path d="M295.229 109.683a13.234 13.234 0 0 1-13.269-13.269c0-7.356 5.913-13.269 13.269-13.269s13.269 5.913 13.269 13.269a13.234 13.234 0 0 1-13.269 13.269zm0-21.489c-4.615 0-8.221 3.75-8.221 8.221 0 4.615 3.75 8.221 8.221 8.221 4.615 0 8.221-3.75 8.221-8.221 0-4.616-3.75-8.221-8.221-8.221zM69.084 276.552h-5.048c0-7.788-3.029-15.288-8.654-20.768-5.625-5.625-12.98-8.654-20.768-8.654v-5.048c9.23 0 17.884 3.606 24.374 10.096 6.49 6.49 10.096 15.144 10.096 24.374z" style="" fill="#41464b" data-original="#41464b" class=""></path><path d="M56.536 276.552h-5.048c0-4.471-1.731-8.798-4.904-11.971s-7.5-4.904-11.971-4.904v-5.048c5.913 0 11.394 2.308 15.576 6.49 4.184 4.039 6.347 9.52 6.347 15.433zM34.614 285.927a9.26 9.26 0 0 1-6.634-2.74c-1.731-1.731-2.74-4.183-2.74-6.634 0-5.192 4.183-9.519 9.519-9.519 5.192 0 9.519 4.183 9.519 9.519-.145 5.191-4.472 9.374-9.664 9.374zm0-13.846c-2.452 0-4.471 2.019-4.471 4.471 0 1.154.433 2.308 1.298 3.173.865.865 1.875 1.298 3.173 1.298 2.452 0 4.471-2.019 4.471-4.471s-2.019-4.471-4.471-4.471zM197.156 399.432v-5.048c1.298 0 2.452-.433 3.461-1.154l3.029 4.038c-1.875 1.443-4.182 2.164-6.49 2.164zm-6.346-2.019c-1.875-1.298-3.317-3.173-4.038-5.336l4.759-1.586c.433 1.154 1.154 2.163 2.163 2.884l-2.884 4.038zm16.73-5.481-4.759-1.586c.144-.577.288-1.154.288-1.731 0-.577-.144-1.298-.288-1.875l4.759-1.586c.433 1.154.577 2.308.577 3.461-.144 1.154-.288 2.164-.577 3.317zm-16.009-5.047-4.759-1.442a11.352 11.352 0 0 1 3.894-5.481l3.029 4.038c-1.01.577-1.731 1.731-2.164 2.885zm9.086-3.029c-1.01-.721-2.163-1.154-3.461-1.154l-.144-5.048h.144c2.308 0 4.471.721 6.346 2.019l-2.885 4.183zM261.913 399.576c-2.163 0-4.183-.433-6.057-1.154l1.875-4.615c1.298.577 2.596.721 4.038.865h.144v4.904zm5.913-1.153-1.875-4.615c1.298-.577 2.452-1.298 3.461-2.308l3.606 3.606c-1.586 1.297-3.317 2.451-5.192 3.317zm-17.162-3.462c-1.442-1.442-2.596-3.173-3.461-5.048l4.615-1.875c.577 1.298 1.298 2.452 2.308 3.461l-3.462 3.462zm25.672-5.192-4.615-1.875c.577-1.298.721-2.596.865-3.894v-.144h2.596l2.452-.577.144.288v.288c-.288 2.02-.721 4.039-1.442 5.914zm-30.288-5.913c0-2.163.433-4.183 1.154-6.057l4.615 1.875a9.675 9.675 0 0 0-.865 4.038l-4.904.144zm25.528-4.183c-.577-1.298-1.298-2.452-2.308-3.461l3.606-3.606c1.442 1.442 2.596 3.173 3.461 5.048l-4.759 2.019zm-17.451-3.317-3.606-3.606c1.442-1.442 3.173-2.596 5.048-3.461l2.019 4.615c-1.298.577-2.451 1.442-3.461 2.452zm11.682-2.452a10.176 10.176 0 0 0-4.038-.865v-5.048c2.019 0 4.038.433 6.057 1.154l-2.019 4.759zM200.617 428.71a8.741 8.741 0 0 1-8.798-8.798 8.741 8.741 0 0 1 8.798-8.798 8.741 8.741 0 0 1 8.798 8.798 8.741 8.741 0 0 1-8.798 8.798zm0-12.404c-2.019 0-3.75 1.731-3.75 3.75s1.731 3.75 3.75 3.75 3.75-1.731 3.75-3.75c0-2.163-1.73-3.75-3.75-3.75zM103.842 213.381h24.086v5.048h-24.086zM103.842 183.094h24.086v5.048h-24.086zM115.813 198.238h24.086v5.048h-24.086zM77.593 226.939H0v-52.642h77.737v52.642h-.144zm-72.545-5.048H72.69v-42.546H5.048v42.546z" style="" fill="#41464b" data-original="#41464b" class=""></path><path d="M38.797 209.632.865 178.912l3.173-4.039 34.759 28.268 34.758-28.268 3.173 4.039z" style="" fill="#41464b" data-original="#41464b" class=""></path><path d="M41.652 210.108H79.44v5.048H41.652z" style="" transform="rotate(-140.878 60.546 212.63)" fill="#41464b" data-original="#41464b" class=""></path><path d="M14.521 193.669h5.048v37.787h-5.048z" style="" transform="rotate(-129.131 17.044 212.563)" fill="#41464b" data-original="#41464b" class=""></path><path d="M230.905 286.792h5.048v5.048h-5.048zM241.001 286.792h5.048v5.048h-5.048zM220.809 286.792h5.048v5.048h-5.048zM250.231 472.699l-28.989-69.084 69.084 28.989-28.989 11.105-11.106 28.99zm-19.615-59.71 19.326 46.152 7.5-19.326 19.326-7.5-46.152-19.326z" style="" fill="#41464b" data-original="#41464b" class=""></path><path d="M255.701 448.393h25.816v5.048h-25.816z" style="" transform="rotate(-135.016 268.61 450.92)" fill="#41464b" data-original="#41464b" class=""></path><path d="M386.957 302.801h76.584v76.584h-76.584z" style="" fill="#fdff00" data-original="#afafaf" class="" opacity="1"></path><path d="M425.321 364.53c-12.836 0-23.365-10.528-23.365-23.365 0-12.836 10.528-23.365 23.365-23.365 12.836 0 23.365 10.528 23.365 23.365a2.585 2.585 0 0 1-2.596 2.596 2.585 2.585 0 0 1-2.596-2.596c0-10.096-8.221-18.317-18.317-18.317s-18.317 8.221-18.317 18.317 8.221 18.317 18.317 18.317c3.173 0 6.346-.865 9.23-2.452 1.154-.721 2.74-.288 3.461.865.721 1.154.288 2.74-.865 3.461-3.606 2.02-7.644 3.174-11.682 3.174z" style="" fill="#41464b" data-original="#41464b" class=""></path><path d="M425.321 354.145c-7.067 0-12.98-5.769-12.98-12.98s5.769-12.98 12.98-12.98 12.98 5.769 12.98 12.98c-.144 7.067-5.913 12.98-12.98 12.98zm0-20.912c-4.327 0-7.932 3.606-7.932 7.932 0 4.327 3.606 7.932 7.932 7.932 4.327 0 7.932-3.606 7.932-7.932-.144-4.327-3.606-7.932-7.932-7.932z" style="" fill="#41464b" data-original="#41464b" class=""></path><path d="M440.897 354.145c-2.019 0-4.038-.865-5.481-2.308-1.442-1.442-2.308-3.317-2.308-5.481v-5.192a2.585 2.585 0 0 1 2.596-2.596 2.585 2.585 0 0 1 2.596 2.596v5.192c0 .577.144 1.298.721 1.875 1.01 1.01 2.885 1.01 3.75 0 .577-.577.721-1.154.721-1.875v-5.192a2.585 2.585 0 0 1 2.596-2.596 2.585 2.585 0 0 1 2.596 2.596v5.192c0 2.019-.865 4.038-2.308 5.481-1.441 1.443-3.46 2.308-5.479 2.308z" style="" fill="#41464b" data-original="#41464b" class=""></path><path d="M24.951 333.377h110.044v73.699H24.951z" style="" fill="#ffde00" data-original="#4cbed8" class="" opacity="1"></path><path d="m51.633 408.951-3.606-3.606 38.652-38.652 38.653 38.652-3.606 3.606-35.047-35.047z" style="" fill="#41464b" data-original="#41464b" class=""></path><path d="m35.047 408.951-3.606-3.606 27.403-27.402 10.096 10.095-3.606 3.606-6.49-6.49zM65.046 371.452c-5.625 0-10.24-4.615-10.24-10.24s4.615-10.24 10.24-10.24 10.24 4.615 10.24 10.24-4.616 10.24-10.24 10.24zm0-15.432a5.17 5.17 0 0 0-5.192 5.192 5.17 5.17 0 0 0 5.192 5.192 5.17 5.17 0 0 0 5.192-5.192 5.171 5.171 0 0 0-5.192-5.192z" style="" fill="#41464b" data-original="#41464b" class=""></path><path d="M122.592 421.931H10.096V345.78h5.048v71.103h107.448zM346.285 388.038h73.699v5.048h-73.699zM346.285 399.144h73.699v5.048h-73.699zM346.285 410.249h44.421v5.048h-44.421zM326.815 376.933h48.604v5.048h-48.604z" style="" fill="#41464b" data-original="#41464b" class=""></path></g></svg>