<svg xmlns="http://www.w3.org/2000/svg" version="1.1" xmlns:xlink="http://www.w3.org/1999/xlink" width="512" height="512" x="0" y="0" viewBox="0 0 256 256" style="enable-background:new 0 0 512 512" xml:space="preserve" class=""><g><path fill="#eb4648" d="M231.103 197.238H24.897V68.704a7.854 7.854 0 0 1 7.854-7.854h190.497a7.855 7.855 0 0 1 7.855 7.854z" opacity="1" data-original="#58595b" class=""></path><path fill="#f4ea7a" d="M217.478 187.43H38.522a3.251 3.251 0 0 1-3.251-3.251V74.164a3.252 3.252 0 0 1 3.251-3.251h178.956a3.251 3.251 0 0 1 3.251 3.251v110.015a3.25 3.25 0 0 1-3.251 3.251z" opacity="1" data-original="#ffa91a" class=""></path><path fill="#eb4648" d="M41.27 152.25c-1.1 0-2-.89-2-1.99 0-1.11.9-2.01 2-2.01s2 .9 2 2.01c0 1.1-.9 1.99-2 1.99zm0-8a2 2 0 0 1-2-2V76.91c0-.52.21-1.04.59-1.41.37-.37.88-.59 1.41-.59h92.66a2 2 0 1 1 0 4H43.27v63.34a2 2 0 0 1-2 2z" opacity="1" data-original="#ffc91d" class=""></path><path fill="#f79219" d="M217.478 70.913h-6.749v103.266a3.252 3.252 0 0 1-3.251 3.251H35.271v6.749a3.251 3.251 0 0 0 3.251 3.251h178.956a3.252 3.252 0 0 0 3.251-3.251V74.164a3.251 3.251 0 0 0-3.251-3.251z" opacity="1" data-original="#f79219" class=""></path><path fill="#ef7816" d="M217.478 70.913h-1.749v108.266a3.252 3.252 0 0 1-3.251 3.251H35.271v1.749a3.251 3.251 0 0 0 3.251 3.251h178.956a3.252 3.252 0 0 0 3.251-3.251V74.164a3.251 3.251 0 0 0-3.251-3.251z" opacity="1" data-original="#ef7816"></path><path fill="#eb4648" d="M242.547 219.047H13.453a4 4 0 0 1-4-4v-13.809a4 4 0 0 1 4-4h229.094a4 4 0 0 1 4 4v13.809a4 4 0 0 1-4 4z" opacity="1" data-original="#808285" class=""></path><path fill="#eb4648" d="M242.547 197.238h-1v12.809a4 4 0 0 1-4 4H9.453v1a4 4 0 0 0 4 4h229.094a4 4 0 0 0 4-4v-13.809a4 4 0 0 0-4-4z" opacity="1" data-original="#58595b" class=""></path><path fill="#414042" d="M140.783 68.391a4 4 0 0 0 3.334-1.79l3.813-5.751h-39.86l3.813 5.751a4 4 0 0 0 3.334 1.79z" opacity="1" data-original="#414042" class=""></path><path fill="#939598" d="M140.783 204.779a4 4 0 0 0 3.334-1.79l3.813-5.751h-39.86l3.813 5.751a4 4 0 0 0 3.334 1.79z" opacity="1" data-original="#939598" class=""></path><path fill="#d1d3d4" d="M105.104 113.766H77.199v-6.675c0-8.602 6.973-15.575 15.575-15.575h5.875a6.455 6.455 0 0 1 6.455 6.455zM150.896 113.766h27.905v-6.675c0-8.602-6.973-15.575-15.575-15.575h-5.875a6.455 6.455 0 0 0-6.455 6.455z" opacity="1" data-original="#d1d3d4" class=""></path><path fill="#f1f2f2" d="m165.859 165.157-30.937-15.199c-4.47-2.196-9.373-2.196-13.843 0l-30.937 15.199c-13.157 6.464-27.088-6.632-27.088-25.466 0-23.071 13.911-41.773 31.07-41.773h67.752c17.16 0 31.07 18.703 31.07 41.773 0 18.834-13.93 31.93-27.087 25.466z" opacity="1" data-original="#f1f2f2" class=""></path><path fill="#e6e7e8" d="m165.859 158.157-30.937-15.199c-4.47-2.196-9.373-2.196-13.843 0l-30.937 15.199c-12.413 6.099-25.514-5.214-26.956-22.328a56.594 56.594 0 0 0-.132 3.862c0 18.833 13.931 31.93 27.088 25.466l30.937-15.199c4.47-2.196 9.373-2.196 13.843 0l30.937 15.199c13.157 6.464 27.088-6.633 27.088-25.466 0-1.302-.045-2.59-.132-3.862-1.442 17.114-14.543 28.427-26.956 22.328z" opacity="1" data-original="#e6e7e8" class=""></path><circle cx="171.636" cy="111.899" r="5.362" fill="#76a34f" opacity="1" data-original="#76a34f" class=""></circle><circle cx="171.636" cy="125.674" r="5.362" fill="#b171f4" opacity="1" data-original="#b171f4" class=""></circle><circle cx="156.955" cy="111.899" r="5.362" fill="#e63950" opacity="1" data-original="#e63950" class=""></circle><path fill="#e63950" d="M97.815 110.134a12.228 12.228 0 0 0-8.677-3.597 12.225 12.225 0 0 0-8.673 3.593l8.677 8.677z" opacity="1" data-original="#e63950" class=""></path><path fill="#91b56b" d="M101.402 118.801c0-3.384-1.371-6.448-3.587-8.667l-8.673 8.673 8.667 8.667a12.223 12.223 0 0 0 3.593-8.673z" opacity="1" data-original="#91b56b"></path><path fill="#f4ea7a" d="M80.465 110.13a12.224 12.224 0 0 0-3.591 8.671c0 3.389 1.375 6.457 3.597 8.677l8.671-8.671z" opacity="1" data-original="#ffa91a" class=""></path><path fill="#b171f4" d="M80.471 127.478a12.223 12.223 0 0 0 8.667 3.587c3.386 0 6.452-1.372 8.671-3.591l-8.667-8.667z" opacity="1" data-original="#b171f4" class=""></path><circle cx="149.521" cy="137.088" r="9.689" fill="#e6e7e8" opacity="1" data-original="#e6e7e8" class=""></circle><circle cx="149.521" cy="137.088" r="6.897" fill="#f4ea7a" opacity="1" data-original="#ffa91a" class=""></circle><path fill="#f79219" d="M151.209 130.399a6.897 6.897 0 0 1-8.377 8.377 6.899 6.899 0 0 0 13.586-1.689 6.9 6.9 0 0 0-5.209-6.688z" opacity="1" data-original="#f79219" class=""></path><circle cx="106.479" cy="137.088" r="9.689" fill="#e6e7e8" opacity="1" data-original="#e6e7e8" class=""></circle><circle cx="106.479" cy="137.088" r="6.897" fill="#f4ea7a" opacity="1" data-original="#ffa91a" class=""></circle><path fill="#f79219" d="M108.168 130.399a6.897 6.897 0 0 1-8.377 8.377 6.899 6.899 0 0 0 13.586-1.689 6.9 6.9 0 0 0-5.209-6.688z" opacity="1" data-original="#f79219" class=""></path><path fill="#939598" d="M140.543 91.516h-25.086a6.123 6.123 0 0 0-6.123 6.123v.279h37.332v-.279a6.123 6.123 0 0 0-6.123-6.123z" opacity="1" data-original="#939598" class=""></path><path fill="#d1d3d4" d="M144.348 124.936h-32.697a2.318 2.318 0 0 1-2.318-2.318v-19.111a2.318 2.318 0 0 1 2.318-2.318h32.697a2.318 2.318 0 0 1 2.318 2.318v19.111a2.318 2.318 0 0 1-2.318 2.318z" opacity="1" data-original="#d1d3d4" class=""></path><path fill="#f4ea7a" d="M37.847 209.347h-13.39a2.617 2.617 0 0 1 0-5.234h13.389a2.617 2.617 0 0 1 .001 5.234z" opacity="1" data-original="#ffa91a" class=""></path><path fill="#f79219" d="M38.404 204.173a2.617 2.617 0 0 1-2.557 3.174h-13.39c-.191 0-.378-.021-.557-.06a2.618 2.618 0 0 0 2.557 2.06h13.389a2.617 2.617 0 0 0 .558-5.174z" opacity="1" data-original="#f79219" class=""></path><path fill="#f1f2f2" d="M61.313 209.347H47.924a2.617 2.617 0 0 1 0-5.234h13.389a2.617 2.617 0 0 1 0 5.234z" opacity="1" data-original="#f1f2f2" class=""></path><path fill="#e6e7e8" d="M61.87 204.173a2.617 2.617 0 0 1-2.557 3.174H45.924c-.191 0-.378-.021-.557-.06a2.617 2.617 0 0 0 2.557 2.06h13.389a2.617 2.617 0 0 0 .557-5.174z" opacity="1" data-original="#e6e7e8" class=""></path></g></svg>